<svg width="32" height="32" viewBox="0 0 32 32" fill="none" xmlns="http://www.w3.org/2000/svg">
<path d="M31.5 16C31.5 24.5604 24.5604 31.5 16 31.5C7.43959 31.5 0.5 24.5604 0.5 16C0.5 7.43959 7.43959 0.5 16 0.5C24.5604 0.5 31.5 7.43959 31.5 16Z" stroke="#2F4857"/>
<path d="M18.8585 16.4265H12.2451V13.3545H19.3705L18.8585 16.4265Z" fill="#2F4857"/>
<path d="M13.7813 11.3493C13.7813 11.7333 13.7813 23.5093 13.7813 23.5093H16.8106C16.8106 23.5093 16.8106 12.0747 16.8106 11.8187C16.8106 11.4773 16.9813 11.3067 17.3226 11.3067C18.0053 11.3067 18.6879 11.3067 19.3706 11.3067C19.3706 10.9227 19.3706 9.42934 19.3706 8.27734C18.4746 8.27734 17.4933 8.27734 17.0239 8.27734C13.7386 8.27734 13.7813 10.9653 13.7813 11.3493Z" fill="#2F4857"/>
</svg>
