<svg width="14" height="16" viewBox="0 0 14 16" fill="none" xmlns="http://www.w3.org/2000/svg">
<path d="M13.5692 6.11469C13.4655 5.03507 13.1018 3.99612 12.5088 3.08564C11.9157 2.17515 11.1109 1.41989 10.1621 0.883663C9.2134 0.34744 8.14871 0.0460174 7.05802 0.00486629C5.96733 -0.0362848 4.8827 0.184045 3.89578 0.647237C2.90886 1.11043 2.04865 1.80287 1.38785 2.66605C0.727046 3.52923 0.285066 4.53778 0.0992581 5.60648C-0.0865502 6.67517 -0.0107265 7.77261 0.320321 8.80605C0.651369 9.83949 1.22791 10.7786 2.00123 11.5439L6.24123 15.7649C6.3156 15.8394 6.40408 15.8985 6.50157 15.9389C6.59906 15.9792 6.70362 16 6.80923 16C6.91484 16 7.01941 15.9792 7.11689 15.9389C7.21438 15.8985 7.30286 15.8394 7.37723 15.7649L11.6012 11.5439C12.3142 10.8408 12.8607 9.98878 13.2011 9.04971C13.5415 8.11064 13.6672 7.10805 13.5692 6.11469ZM10.4812 10.4231L6.80123 14.0797L3.12123 10.4231C2.57891 9.88418 2.16348 9.23258 1.90481 8.51512C1.64614 7.79766 1.55066 7.03217 1.62523 6.27367C1.70029 5.50349 1.94664 4.7595 2.34649 4.0955C2.74634 3.4315 3.28968 2.86408 3.93723 2.43427C4.78599 1.87405 5.78228 1.57521 6.80123 1.57521C7.82019 1.57521 8.81648 1.87405 9.66523 2.43427C10.3108 2.86242 10.853 3.42733 11.2527 4.08842C11.6525 4.74951 11.8999 5.49037 11.9772 6.25778C12.0542 7.01884 11.96 7.7874 11.7012 8.5078C11.4425 9.2282 11.0258 9.88242 10.4812 10.4231Z" fill="#2F4857"/>
</svg>
