<svg width="32" height="24" viewBox="0 0 32 24" fill="none" xmlns="http://www.w3.org/2000/svg">
<path d="M14.2115 17.856C14.2115 19.712 13.5992 21.216 12.3746 22.368C11.15 23.456 9.60322 24 7.73414 24C5.47835 24 3.60926 23.264 2.12689 21.792C0.708963 20.32 0 18.208 0 15.456C0 12.512 0.837865 9.632 2.51359 6.816C4.25378 3.936 6.67069 1.664 9.76435 0L11.9879 3.36C10.3122 4.512 8.95871 5.792 7.92749 7.2C6.96072 8.608 6.31621 10.24 5.99396 12.096C6.57402 11.84 7.25076 11.712 8.02417 11.712C9.8288 11.712 11.3112 12.288 12.4713 13.44C13.6314 14.592 14.2115 16.064 14.2115 17.856ZM32 17.856C32 19.712 31.3877 21.216 30.1631 22.368C28.9386 23.456 27.3917 24 25.5227 24C23.2669 24 21.3978 23.264 19.9154 21.792C18.4975 20.32 17.7885 18.208 17.7885 15.456C17.7885 12.512 18.6264 9.632 20.3021 6.816C22.0423 3.936 24.4592 1.664 27.5529 0L29.7764 3.36C28.1007 4.512 26.7472 5.792 25.716 7.2C24.7492 8.608 24.1047 10.24 23.7825 12.096C24.3625 11.84 25.0393 11.712 25.8127 11.712C27.6173 11.712 29.0997 12.288 30.2598 13.44C31.4199 14.592 32 16.064 32 17.856Z" fill="white"/>
</svg>
