<svg width="48" height="48" viewBox="0 0 48 48" fill="none" xmlns="http://www.w3.org/2000/svg">
<rect width="48" height="48" fill="#2F4857"/>
<path fill-rule="evenodd" clip-rule="evenodd" d="M15.25 27.7067C15.2552 27.6311 15.2546 27.6119 15.2675 27.537C15.2965 27.3686 15.3603 27.2067 15.4541 27.0638C15.5015 26.9915 15.5566 26.9285 15.6154 26.8655L23.1157 19.3651C23.1712 19.3134 23.1838 19.2989 23.2444 19.253C23.3124 19.2014 23.3857 19.1569 23.4628 19.1202C23.7998 18.9599 24.1996 18.9599 24.5366 19.1202C24.6137 19.1569 24.687 19.2014 24.755 19.253C24.8155 19.299 24.8282 19.3134 24.8836 19.3651L32.3839 26.8655C32.4356 26.9209 32.4501 26.9336 32.496 26.9941C32.6166 27.153 32.698 27.3405 32.7319 27.537C32.756 27.6773 32.756 27.8215 32.7319 27.9618C32.7125 28.074 32.6778 28.1835 32.6289 28.2863C32.4432 28.6768 32.058 28.9487 31.6279 28.9929C31.4579 29.0104 31.2847 28.9926 31.1218 28.9409C30.9861 28.8978 30.8581 28.8315 30.7447 28.7455C30.6841 28.6995 30.6715 28.6851 30.6161 28.6334L23.9997 22.0169L17.3832 28.6334L17.3209 28.6916C17.2621 28.7394 17.2484 28.753 17.1849 28.7947C17.0659 28.8727 16.9336 28.9302 16.7953 28.9639C16.6847 28.9909 16.5705 29.0026 16.4567 28.9987C16.0245 28.984 15.6217 28.739 15.4097 28.3621C15.34 28.238 15.2917 28.1021 15.2675 27.9618C15.2546 27.8869 15.2552 27.8677 15.25 27.7921C15.25 27.7636 15.25 27.7352 15.25 27.7067Z" fill="white"/>
</svg>
