<svg width="24" height="16" viewBox="0 0 24 16" fill="none" xmlns="http://www.w3.org/2000/svg">
<path d="M16.458 0.000469906C16.458 1.40878 16.458 2.80299 16.458 4.21224C17.1474 4.21224 17.8109 4.20613 18.4739 4.21835C18.5824 4.22023 18.7173 4.27615 18.7934 4.35274C19.4978 5.06324 20.2102 5.76669 20.8812 6.50773C21.2581 6.92407 21.674 7.19662 22.2313 7.29953C22.8266 7.40948 23.4107 7.58147 24 7.7262C24 9.60207 24 11.4779 24 13.3543C23.6612 13.3543 23.3224 13.3543 22.9845 13.3543C22.5898 13.3543 22.1965 13.3543 21.8051 13.3543C21.665 14.7146 20.5161 15.7752 19.1186 15.7752C17.7239 15.7752 16.5764 14.7179 16.4331 13.3608C13.2664 13.3604 10.0997 13.3613 6.933 13.3576C6.79156 14.7161 5.64311 15.7752 4.24701 15.7752C2.84998 15.7752 1.70106 14.7147 1.56056 13.3547C1.54975 13.3547 1.53847 13.3547 1.52673 13.3552C1.02158 13.3712 0.515959 13.3604 0 13.3604C0 8.89298 0 4.45095 0 0C5.48569 0.000469906 10.9587 0.000469906 16.458 0.000469906ZM19.1191 14.3688C19.8338 14.3688 20.4132 13.7894 20.4132 13.0747C20.4132 12.3599 19.8338 11.7806 19.1191 11.7806C18.4044 11.7806 17.825 12.3599 17.825 13.0747C17.825 13.7894 18.4044 14.3688 19.1191 14.3688ZM22.5663 11.9502H22.5837C22.5879 11.8905 22.5931 11.8534 22.5931 11.8163C22.5936 10.8328 22.5936 9.84924 22.5936 8.84787C22.0513 8.70737 21.5147 8.57908 20.9851 8.42448C20.8234 8.37702 20.6547 8.28445 20.5368 8.16556C19.7553 7.37894 18.9903 6.57587 18.2098 5.78831C18.1234 5.70137 17.9739 5.63841 17.8508 5.63371C17.3926 5.61585 16.9335 5.62666 16.4618 5.62666C16.4618 7.73795 16.4618 9.82668 16.4618 11.9502H16.6634C17.09 11.0202 18.0284 10.3741 19.1186 10.3741C20.2088 10.3741 21.1472 11.0202 21.5739 11.9502H21.8314C22.0724 11.9422 22.3154 11.9497 22.5663 11.9502ZM14.9473 11.9483C14.9693 11.9483 14.9919 11.9403 15.0342 11.9328C15.0342 8.41837 15.0342 4.92039 15.0342 1.40831C10.4902 1.40831 5.95512 1.40831 1.40737 1.40831C1.40737 4.9171 1.40737 8.41461 1.40737 11.9492C1.43556 11.9492 1.46423 11.9497 1.49242 11.9502H1.79269C2.21937 11.0202 3.15777 10.3741 4.24795 10.3741C5.33579 10.3741 6.27278 11.0179 6.70086 11.9446C9.44935 11.9507 12.1983 11.9492 14.9473 11.9483ZM5.54161 13.0747C5.54161 12.3599 4.96221 11.7806 4.24748 11.7806C3.53276 11.7806 2.95336 12.3599 2.95336 13.0747C2.95336 13.7894 3.53276 14.3688 4.24748 14.3688C4.96221 14.3688 5.54161 13.7894 5.54161 13.0747Z" fill="white"/>
<path d="M6.03032 10.5329C6.03032 9.90792 6.03032 9.30127 6.03032 8.66079C5.38937 8.66079 4.78272 8.66079 4.16479 8.66079C4.16479 7.30464 4.16479 5.96587 4.16479 4.59704C4.79212 4.59704 5.40394 4.59704 6.03643 4.59704C6.03643 3.96078 6.03643 3.35413 6.03643 2.73621C7.3954 2.73621 8.73322 2.73621 10.1049 2.73621C10.1049 3.36635 10.1049 3.9777 10.1049 4.61348C10.7449 4.61348 11.3506 4.61348 11.9629 4.61348C11.9629 5.97668 11.9629 7.3145 11.9629 8.67253C11.3356 8.67253 10.7284 8.67253 10.0936 8.67253C10.0936 9.30503 10.0936 9.91779 10.0936 10.5324C8.72571 10.5329 7.38647 10.5329 6.03032 10.5329ZM10.5414 7.26093C10.5414 6.84554 10.5414 6.45786 10.5414 6.03636C9.92538 6.03636 9.31356 6.03636 8.67731 6.03636C8.67731 5.39776 8.67731 4.79205 8.67731 4.1666C8.25909 4.1666 7.86578 4.1666 7.43769 4.1666C7.43769 4.79064 7.43769 5.39682 7.43769 6.02508C6.81178 6.02508 6.20513 6.02508 5.58203 6.02508C5.58203 6.44095 5.58203 6.83473 5.58203 7.25342C6.19385 7.25342 6.80661 7.25342 7.43534 7.25342C7.43534 7.8845 7.43534 8.49115 7.43534 9.11706C7.8451 9.11706 8.23841 9.11706 8.66274 9.11706C8.66274 8.51136 8.66274 7.89954 8.66274 7.26046C9.3051 7.26093 9.91739 7.26093 10.5414 7.26093Z" fill="white"/>
</svg>
