<svg width="48" height="48" viewBox="0 0 48 48" fill="none" xmlns="http://www.w3.org/2000/svg">
<path d="M21.4352 23.084H18.5039C17.8004 23.084 17.2214 23.6629 17.2214 24.3664V28.0305C17.2214 28.734 17.8004 29.313 18.5039 29.313H21.4352C22.1387 29.313 22.7176 28.734 22.7176 28.0305V24.3664C22.7176 23.6629 22.1387 23.084 21.4352 23.084ZM21.6184 28.0305C21.6184 28.1331 21.5378 28.2137 21.4352 28.2137H18.5039C18.4013 28.2137 18.3207 28.1331 18.3207 28.0305V24.3664C18.3207 24.2638 18.4013 24.1832 18.5039 24.1832H21.4352C21.5378 24.1832 21.6184 24.2638 21.6184 24.3664V28.0305Z" fill="#00BB6D"/>
<path d="M21.4352 14.2901H18.5039C17.8004 14.2901 17.2214 14.869 17.2214 15.5725V19.2366C17.2214 19.9401 17.8004 20.5191 18.5039 20.5191H21.4352C22.1387 20.5191 22.7176 19.9401 22.7176 19.2366V15.5725C22.7176 14.869 22.1387 14.2901 21.4352 14.2901ZM21.6184 19.2366C21.6184 19.3392 21.5378 19.4198 21.4352 19.4198H18.5039C18.4013 19.4198 18.3207 19.3392 18.3207 19.2366V15.5725C18.3207 15.4699 18.4013 15.3893 18.5039 15.3893H21.4352C21.5378 15.3893 21.6184 15.4699 21.6184 15.5725V19.2366Z" fill="#00BB6D"/>
<path d="M13.3741 23.084H10.4428C9.73933 23.084 9.1604 23.6629 9.1604 24.3664V28.0305C9.1604 28.734 9.73933 29.313 10.4428 29.313H13.3741C14.0777 29.313 14.6566 28.734 14.6566 28.0305V24.3664C14.6566 23.6629 14.0777 23.084 13.3741 23.084ZM13.5573 28.0305C13.5573 28.1331 13.4767 28.2137 13.3741 28.2137H10.4428C10.3402 28.2137 10.2596 28.1331 10.2596 28.0305V24.3664C10.2596 24.2638 10.3402 24.1832 10.4428 24.1832H13.3741C13.4767 24.1832 13.5573 24.2638 13.5573 24.3664V28.0305Z" fill="#00BB6D"/>
<path d="M13.3741 14.2901H10.4428C9.73933 14.2901 9.1604 14.869 9.1604 15.5725V19.2366C9.1604 19.9401 9.73933 20.5191 10.4428 20.5191H13.3741C14.0777 20.5191 14.6566 19.9401 14.6566 19.2366V15.5725C14.6566 14.869 14.0777 14.2901 13.3741 14.2901ZM13.5573 19.2366C13.5573 19.3392 13.4767 19.4198 13.3741 19.4198H10.4428C10.3402 19.4198 10.2596 19.3392 10.2596 19.2366V15.5725C10.2596 15.4699 10.3402 15.3893 10.4428 15.3893H13.3741C13.4767 15.3893 13.5573 15.4699 13.5573 15.5725V19.2366Z" fill="#00BB6D"/>
<path d="M29.4962 23.084H26.5649C25.8614 23.084 25.2825 23.6629 25.2825 24.3664V28.0305C25.2825 28.734 25.8614 29.313 26.5649 29.313H29.4962C30.1997 29.313 30.7787 28.734 30.7787 28.0305V24.3664C30.7787 23.6629 30.2071 23.084 29.4962 23.084ZM29.6794 28.0305C29.6794 28.1331 29.5988 28.2137 29.4962 28.2137H26.5649C26.4623 28.2137 26.3817 28.1331 26.3817 28.0305V24.3664C26.3817 24.2638 26.4623 24.1832 26.5649 24.1832H29.4962C29.5988 24.1832 29.6794 24.2638 29.6794 24.3664V28.0305Z" fill="#00BB6D"/>
<path d="M29.4962 14.2901H26.5649C25.8614 14.2901 25.2825 14.869 25.2825 15.5725V19.2366C25.2825 19.9401 25.8614 20.5191 26.5649 20.5191H29.4962C30.1997 20.5191 30.7787 19.9401 30.7787 19.2366V15.5725C30.7787 14.869 30.2071 14.2901 29.4962 14.2901ZM29.6794 19.2366C29.6794 19.3392 29.5988 19.4198 29.4962 19.4198H26.5649C26.4623 19.4198 26.3817 19.3392 26.3817 19.2366V15.5725C26.3817 15.4699 26.4623 15.3893 26.5649 15.3893H29.4962C29.5988 15.3893 29.6794 15.4699 29.6794 15.5725V19.2366Z" fill="#00BB6D"/>
<path d="M37.5572 23.084H34.6259C33.9224 23.084 33.3435 23.6629 33.3435 24.3664V28.0305C33.3435 28.734 33.9224 29.313 34.6259 29.313H37.5572C38.2608 29.313 38.8397 28.734 38.8397 28.0305V24.3664C38.8397 23.6629 38.2681 23.084 37.5572 23.084ZM37.7405 28.0305C37.7405 28.1331 37.6598 28.2137 37.5572 28.2137H34.6259C34.5234 28.2137 34.4427 28.1331 34.4427 28.0305V24.3664C34.4427 24.2638 34.5234 24.1832 34.6259 24.1832H37.5572C37.6598 24.1832 37.7405 24.2638 37.7405 24.3664V28.0305Z" fill="#00BB6D"/>
<path d="M14.4734 35.9084H10.4429H6.41233C5.70881 35.9084 5.12988 36.4873 5.12988 37.1908V41.5878C5.12988 42.2913 5.70881 42.8702 6.41233 42.8702H10.4429H14.4734C15.1769 42.8702 15.7558 42.2913 15.7558 41.5878V37.1908C15.7558 36.4873 15.1842 35.9084 14.4734 35.9084ZM6.22912 41.5878V37.1908C6.22912 37.0882 6.30973 37.0076 6.41233 37.0076H9.89324V41.771H6.41233C6.30973 41.771 6.22912 41.6904 6.22912 41.5878ZM14.6566 41.5878C14.6566 41.6904 14.576 41.771 14.4734 41.771H10.9925V37.0076H14.4734C14.576 37.0076 14.6566 37.0882 14.6566 37.1908V41.5878Z" fill="#00BB6D"/>
<path d="M41.5879 35.9084H37.5574H33.5268C32.816 35.9084 32.2444 36.4873 32.2444 37.1908V41.5878C32.2444 42.2913 32.8233 42.8702 33.5268 42.8702H37.5574H41.5879C42.2914 42.8702 42.8703 42.2913 42.8703 41.5878V37.1908C42.8703 36.4873 42.2914 35.9084 41.5879 35.9084ZM33.3436 41.5878V37.1908C33.3436 37.0882 33.4242 37.0076 33.5268 37.0076H37.0077V41.771H33.5268C33.4242 41.771 33.3436 41.6904 33.3436 41.5878ZM41.7711 41.5878C41.7711 41.6904 41.6905 41.771 41.5879 41.771H38.107V37.0076H41.5879C41.6905 37.0076 41.7711 37.0882 41.7711 37.1908V41.5878Z" fill="#00BB6D"/>
<path d="M37.5572 14.2901H34.6259C33.9224 14.2901 33.3435 14.869 33.3435 15.5725V19.2366C33.3435 19.9401 33.9224 20.5191 34.6259 20.5191H37.5572C38.2608 20.5191 38.8397 19.9401 38.8397 19.2366V15.5725C38.8397 14.869 38.2681 14.2901 37.5572 14.2901ZM37.7405 19.2366C37.7405 19.3392 37.6598 19.4198 37.5572 19.4198H34.6259C34.5234 19.4198 34.4427 19.3392 34.4427 19.2366V15.5725C34.4427 15.4699 34.5234 15.3893 34.6259 15.3893H37.5572C37.6598 15.3893 37.7405 15.4699 37.7405 15.5725V19.2366Z" fill="#00BB6D"/>
<path d="M47.4504 46.9008H46.5344V32.7939C46.5344 32.4934 46.2852 32.2443 45.9847 32.2443H42.1374V6.22901H43.0534C43.3539 6.22901 43.6031 5.97985 43.6031 5.67939C43.6031 5.37893 43.3539 5.12977 43.0534 5.12977H41.5878H29.6794V2.01527C29.6794 0.901374 28.778 0 27.6641 0H20.3359C19.222 0 18.3206 0.901374 18.3206 2.01527V5.12977H6.41221H4.94657C4.64611 5.12977 4.39695 5.37893 4.39695 5.67939C4.39695 5.97985 4.64611 6.22901 4.94657 6.22901H5.8626V32.2443H2.01527C1.71481 32.2443 1.46565 32.4934 1.46565 32.7939V46.9008H0.549618C0.24916 46.9008 0 47.1499 0 47.4504C0 47.7508 0.24916 48 0.549618 48H2.01527H18.8702H24H29.1298H45.9847H47.4504C47.7508 48 48 47.7508 48 47.4504C48 47.1499 47.7508 46.9008 47.4504 46.9008ZM19.4198 2.01527C19.4198 1.50962 19.8302 1.09924 20.3359 1.09924H27.6641C28.1698 1.09924 28.5802 1.50962 28.5802 2.01527V5.12977V6.22901V9.34351C28.5802 9.84916 28.1698 10.2595 27.6641 10.2595H20.3359C19.8302 10.2595 19.4198 9.84916 19.4198 9.34351V6.22901V5.12977V2.01527ZM6.96183 6.22901H18.3206V9.34351C18.3206 10.4574 19.222 11.3588 20.3359 11.3588H27.6641C28.778 11.3588 29.6794 10.4574 29.6794 9.34351V6.22901H41.0382V32.2443H6.96183V6.22901ZM23.4504 46.9008H19.4198V37.1908C19.4198 37.0882 19.5005 37.0076 19.6031 37.0076H23.4504V46.9008ZM24.5496 46.9008V37.0076H28.3969C28.4995 37.0076 28.5802 37.0882 28.5802 37.1908V46.9008H24.5496ZM29.6794 46.9008V37.1908C29.6794 36.4873 29.1005 35.9084 28.3969 35.9084H24H19.6031C18.8995 35.9084 18.3206 36.4873 18.3206 37.1908V46.9008H2.56489V33.3435H6.41221H41.5878H45.4351V46.9008H29.6794Z" fill="#00BB6D"/>
<path d="M21.8016 6.229H23.4504V7.87785C23.4504 8.17831 23.6996 8.42747 24 8.42747C24.3005 8.42747 24.5497 8.17831 24.5497 7.87785V6.229H26.1985C26.499 6.229 26.7481 5.97984 26.7481 5.67938C26.7481 5.37892 26.499 5.12976 26.1985 5.12976H24.5497V3.48091C24.5497 3.18045 24.3005 2.93129 24 2.93129C23.6996 2.93129 23.4504 3.18045 23.4504 3.48091V5.12976H21.8016C21.5011 5.12976 21.252 5.37892 21.252 5.67938C21.252 5.97984 21.5011 6.229 21.8016 6.229Z" fill="#00BB6D"/>
</svg>
