<svg width="48" height="48" viewBox="0 0 48 48" fill="none" xmlns="http://www.w3.org/2000/svg">
<path d="M42.2164 42.9722C42.2164 42.9636 42.2164 42.9636 42.225 42.955C42.2336 42.9207 42.2422 42.8949 42.2422 42.8605C42.2422 42.8519 42.2422 42.8347 42.2508 42.8262C42.2594 42.8004 42.2594 42.766 42.268 42.7402C42.268 42.723 42.2766 42.7059 42.2766 42.6887C42.2766 42.6629 42.2851 42.6371 42.2851 42.6199C42.2851 42.5942 42.2851 42.5684 42.2937 42.5512C42.2937 42.534 42.2937 42.5168 42.2937 42.4996C42.2937 42.4567 42.2937 42.4137 42.2937 42.3708V37.8942C42.2937 36.7858 42.0016 35.6516 41.4861 34.6034C41.3915 34.4143 41.2884 34.2253 41.1853 34.0363C41.0822 33.8558 40.9619 33.6668 40.8416 33.495C40.7214 33.3145 40.5925 33.1427 40.4636 32.9794C40.3948 32.8935 40.3261 32.8162 40.2574 32.7302C39.295 31.5875 38.0578 30.6939 36.7174 30.2557L35.3856 29.8261L33.4179 29.1988L33.3836 29.1645C33.375 29.1473 33.3578 29.1387 33.3406 29.1215L31.7768 27.5491C31.5276 27.2999 31.2011 27.171 30.8746 27.171C30.8574 26.982 30.8402 26.793 30.8402 26.5868C30.8402 26.5266 30.8402 26.4751 30.8317 26.4149C32.5415 24.4645 33.607 21.8181 34.0194 19.1631C34.1225 19.0599 34.1912 18.9225 34.1998 18.7764L34.5349 15.3051C34.7411 15.202 34.8786 14.9872 34.8786 14.7466V5.04596C34.8786 4.80538 34.7411 4.59057 34.5349 4.48746C28.0306 1.17085 20.2632 1.17085 13.7502 4.48746C13.5354 4.59916 13.4065 4.81397 13.4065 5.04596V14.7466C13.4065 14.9958 13.544 15.202 13.7502 15.3051L14.0853 18.7764C14.1025 18.9225 14.1627 19.0599 14.2658 19.1631C14.6782 21.8181 15.7436 24.4559 17.4449 26.4063C17.4363 26.6727 17.4277 26.9305 17.4019 27.1625C17.0754 27.171 16.7489 27.2999 16.5083 27.5405L14.936 29.1129C14.9188 29.1301 14.9102 29.1387 14.893 29.1559L14.8586 29.1902L11.5592 30.2471C8.50035 31.2352 6 34.6549 6 37.8856V42.3622C6 42.4051 6 42.4481 6 42.4911C6 42.5082 6 42.5254 6 42.5426C6 42.5684 6 42.5942 6.00859 42.6114C6.00859 42.6371 6.01718 42.6629 6.01718 42.6801C6.01718 42.6973 6.01718 42.7145 6.02578 42.7316C6.02578 42.7574 6.03437 42.7918 6.04296 42.8176C6.04296 42.8262 6.04296 42.8433 6.05155 42.8519C6.06015 42.8863 6.06874 42.9207 6.06874 42.9464C6.06874 42.955 6.06874 42.955 6.07733 42.9636C6.08592 42.998 6.09451 43.041 6.10311 43.0753C6.42102 44.1837 7.4435 45 8.65501 45H16.7403H22.7979H25.4873H31.5448H39.6301C40.8416 45 41.8641 44.1837 42.182 43.0753C42.1992 43.0496 42.2078 43.0152 42.2164 42.9722ZM26.0887 43.7455L25.7107 36.5624C25.7966 36.4765 25.8739 36.3905 25.9341 36.2874L26.5012 36.8545C26.7503 37.1037 27.0768 37.2326 27.4205 37.2326C27.4549 37.2326 27.4893 37.2326 27.5236 37.2326C27.9017 37.2068 28.254 37.0092 28.4774 36.6999L30.7543 33.5723L27.0511 43.7455H26.0887ZM21.2255 43.7455L17.5222 33.5723L19.7992 36.6999C20.0226 37.0092 20.3749 37.2068 20.7529 37.2326C20.7873 37.2326 20.8217 37.2326 20.856 37.2326C21.1997 37.2326 21.5348 37.0951 21.7754 36.8545L22.3425 36.2874C22.4026 36.3905 22.48 36.4851 22.5659 36.5624L22.1878 43.7455H21.2255ZM14.6696 34.8869C14.6524 34.6979 14.5493 34.526 14.3946 34.4229L13.0113 33.5035C13.0113 33.5035 12.9941 33.495 12.9941 33.4778C12.9941 33.4606 13.0027 33.452 13.0027 33.4434L13.0113 33.4348L15.1765 30.8228L19.8765 43.7369H17.0754L12.9254 37.1209C12.9168 37.1037 12.8996 37.0865 12.891 37.0693C12.8738 37.035 12.8738 37.0092 12.891 37.0006L14.4892 35.4024C14.618 35.265 14.6868 35.0759 14.6696 34.8869ZM15.314 18.321L15.0305 15.3739H15.9498C15.7952 16.2675 15.6319 17.5563 15.5374 18.4413L15.314 18.321ZM15.7522 20.0137C15.8467 20.0652 15.9498 20.091 16.0615 20.091C16.1647 20.091 16.2592 20.0652 16.3537 20.0223C16.5427 19.9278 16.6716 19.7387 16.6888 19.5239C16.8091 18.2866 17.0497 16.3104 17.2301 15.3739H31.0636C31.2441 16.3104 31.4761 18.2866 31.605 19.5239C31.6221 19.7387 31.751 19.9192 31.9401 20.0223C32.0346 20.0738 32.1291 20.091 32.2322 20.091C32.3353 20.091 32.447 20.0652 32.5415 20.0137L32.5845 19.9879C31.6221 24.284 28.7781 28.2623 24.1469 28.2623C19.5156 28.2623 16.6716 24.2926 15.7093 19.9879L15.7522 20.0137ZM32.9797 18.321L32.7563 18.4413C32.6618 17.5563 32.4986 16.2675 32.3439 15.3739H33.2633L32.9797 18.321ZM18.6306 27.5577C20.1085 28.7778 21.9558 29.5253 24.1383 29.5253C26.3293 29.5253 28.1595 28.7778 29.6459 27.5663C29.6459 27.5921 29.6545 27.6093 29.6545 27.635C29.6631 27.6866 29.6717 27.7295 29.6889 27.7725L24.1383 32.7646L18.5877 27.7639C18.6049 27.721 18.6134 27.678 18.622 27.635C18.6306 27.6007 18.6306 27.5749 18.6306 27.5577ZM23.4681 35.6688C23.4423 35.6688 23.4251 35.6516 23.4251 35.6258V35.2134L24.1383 34.5003L24.8514 35.2134V35.6258C24.8514 35.6516 24.8342 35.6688 24.8085 35.6688H23.4681ZM23.8204 36.9319H24.4734L24.8257 43.7541H23.4595L23.8204 36.9319ZM33.8046 35.3938L35.4027 36.992C35.4199 37.0092 35.4199 37.035 35.4027 37.0436C35.3856 37.0607 35.377 37.0779 35.3684 37.0951L31.2183 43.7112H28.4172L33.1172 30.797L35.2824 33.409L35.291 33.4176C35.291 33.4176 35.2996 33.4348 35.2996 33.452C35.2996 33.4692 35.2824 33.4778 35.2824 33.4778L33.8991 34.3971C33.7444 34.5002 33.6413 34.6721 33.6241 34.8611C33.5984 35.0759 33.6671 35.265 33.8046 35.3938ZM41.0221 37.8856V42.3622C41.0221 42.4051 41.0221 42.4481 41.0135 42.4996C41.0135 42.5168 41.0049 42.5426 41.0049 42.5598C41.0049 42.5856 40.9963 42.6028 40.9963 42.6285C40.9877 42.6543 40.9877 42.6801 40.9791 42.7145C40.9791 42.723 40.9705 42.7402 40.9705 42.7488C40.9619 42.7832 40.9533 42.8176 40.9362 42.8519C40.9362 42.8605 40.9362 42.8605 40.9276 42.8691C40.7471 43.3245 40.3347 43.6682 39.8278 43.7369H32.7048L36.4166 37.8083C36.7947 37.2927 36.7431 36.571 36.2877 36.1156L35.2309 35.0587L35.9698 34.5604C36.2792 34.3542 36.4854 34.0191 36.5369 33.6496C36.5885 33.2801 36.4768 32.9107 36.2362 32.6271L34.8958 31.0118L36.3221 31.4672C38.874 32.2663 41.0221 35.2134 41.0221 37.8856ZM32.0689 29.6284L27.4635 35.9609C27.4635 35.9609 27.4549 35.9781 27.4291 35.9781C27.4119 35.9781 27.4033 35.9695 27.3947 35.9695L25.0576 33.6324L30.8231 28.4427C30.8402 28.4255 30.866 28.4255 30.8832 28.4427L32.0689 29.6284ZM14.6696 5.43261C20.6326 2.52842 27.6525 2.52842 33.6155 5.43261V14.1108H14.6696V5.43261ZM17.4019 28.4427C17.4191 28.4255 17.4449 28.4255 17.4621 28.4427L23.2275 33.6324L20.8904 35.9695C20.8904 35.9695 20.8732 35.9867 20.856 35.9781C20.8388 35.9781 20.8303 35.9609 20.8217 35.9609L16.2162 29.6284L17.4019 28.4427ZM7.26306 37.8856C7.26306 35.2134 9.41113 32.2663 11.9544 31.4586L13.3808 31.0032L12.0404 32.6185C11.7998 32.9021 11.6881 33.2716 11.7396 33.641C11.7912 34.0105 11.9974 34.3456 12.3067 34.5518L13.0457 35.0502L11.9974 36.107C11.542 36.5624 11.4905 37.2841 11.8685 37.7997L15.5804 43.7283H8.45739C7.95044 43.6596 7.52942 43.3159 7.35758 42.8605C7.35758 42.8519 7.35758 42.8519 7.34899 42.8433C7.34039 42.809 7.32321 42.7746 7.31462 42.7402C7.31462 42.7316 7.30602 42.7145 7.30602 42.7059C7.29743 42.6801 7.28884 42.6543 7.28884 42.6199C7.28884 42.5942 7.28025 42.577 7.28025 42.5512C7.28025 42.534 7.27166 42.5082 7.27166 42.4911C7.27166 42.4481 7.26306 42.4051 7.26306 42.3536V37.8856Z" fill="#00BB6D"/>
<path d="M26.8358 8.05324H24.7737V5.9911C24.7737 5.63881 24.4901 5.36386 24.1464 5.36386C23.8028 5.36386 23.5192 5.64741 23.5192 5.9911V8.05324H21.4571C21.1048 8.05324 20.8298 8.33679 20.8298 8.68048C20.8298 9.02417 21.1134 9.30771 21.4571 9.30771H23.5192V11.3699C23.5192 11.7221 23.8028 11.9971 24.1464 11.9971C24.4901 11.9971 24.7737 11.7135 24.7737 11.3699V9.30771H26.8358C27.1881 9.30771 27.4631 9.02417 27.4631 8.68048C27.4631 8.33679 27.1881 8.05324 26.8358 8.05324Z" fill="#00BB6D"/>
</svg>
