<svg width="40" height="80" viewBox="0 0 40 80" fill="none" xmlns="http://www.w3.org/2000/svg">
<rect y="40" width="40" height="40" fill="#2F4857"/>
<path d="M26.4222 53.3684H13.5781C12.4758 53.3684 11.5791 54.2296 11.5791 55.2881V64.2407C11.5791 65.2992 12.4758 66.1604 13.5781 66.1604H26.4222C27.5245 66.1604 28.4212 65.2992 28.4212 64.2407V55.2881C28.4212 54.2296 27.5245 53.3684 26.4222 53.3684ZM26.4222 64.4656H13.5781C13.4161 64.4656 13.274 64.3605 13.274 64.2407V56.472L19.083 61.3763C19.2021 61.4769 19.3536 61.5322 19.5095 61.5322L20.4906 61.5323C20.6464 61.5323 20.798 61.4769 20.9171 61.3763L26.7264 56.4718V64.2408C26.7263 64.3605 26.5842 64.4656 26.4222 64.4656ZM20.0001 59.8494L14.3501 55.0632H25.6502L20.0001 59.8494Z" fill="white"/>
<rect width="40" height="40" fill="#2F4857"/>
<path d="M26.3337 22.6314C26.1477 22.6314 25.9533 22.5722 25.7674 22.53C25.3909 22.447 25.0209 22.3369 24.6603 22.2004C24.2682 22.0577 23.8372 22.0652 23.4503 22.2212C23.0634 22.3772 22.7478 22.6708 22.5643 23.0455L22.3784 23.4258C21.5552 22.9679 20.7988 22.3992 20.1303 21.7356C19.4667 21.0671 18.898 20.3106 18.4401 19.4875L18.795 19.2508C19.1697 19.0674 19.4633 18.7518 19.6194 18.3649C19.7754 17.9779 19.7828 17.547 19.6402 17.1549C19.506 16.7935 19.3959 16.4237 19.3105 16.0478C19.2683 15.8618 19.2345 15.6675 19.2091 15.4731C19.1065 14.8778 18.7947 14.3387 18.3299 13.9529C17.865 13.5671 17.2777 13.3599 16.6737 13.3687H14.1383C13.7741 13.3653 13.4134 13.4404 13.0808 13.5889C12.7482 13.7374 12.4515 13.9558 12.2109 14.2293C11.9703 14.5027 11.7915 14.8248 11.6865 15.1737C11.5816 15.5225 11.5531 15.8898 11.6029 16.2506C12.0531 19.7912 13.6701 23.0809 16.1985 25.6001C18.7268 28.1192 22.0224 29.7242 25.5646 30.1616H25.8857C26.5089 30.1625 27.1107 29.9339 27.576 29.5193C27.8434 29.2802 28.057 28.987 28.2027 28.6592C28.3483 28.3314 28.4228 27.9764 28.4211 27.6177V25.0823C28.4108 24.4953 28.197 23.93 27.8163 23.483C27.4356 23.036 26.9116 22.735 26.3337 22.6314ZM26.7562 27.7022C26.7561 27.8222 26.7304 27.9408 26.6808 28.0501C26.6313 28.1594 26.559 28.2569 26.4689 28.3361C26.3747 28.4181 26.2643 28.4793 26.1449 28.5157C26.0255 28.5521 25.8997 28.5629 25.7759 28.5474C22.6107 28.1415 19.6708 26.6936 17.4197 24.4318C15.1687 22.17 13.7347 19.2232 13.3439 16.0562C13.3304 15.9324 13.3422 15.8072 13.3785 15.6881C13.4148 15.569 13.4749 15.4584 13.5551 15.3632C13.6343 15.2731 13.7318 15.2008 13.8411 15.1513C13.9504 15.1017 14.069 15.076 14.189 15.0759H16.7244C16.921 15.0715 17.1129 15.1358 17.2671 15.2576C17.4214 15.3795 17.5283 15.5513 17.5696 15.7435C17.6034 15.9745 17.6456 16.2027 17.6963 16.4281C17.794 16.8736 17.9239 17.3114 18.0851 17.738L16.9019 18.2874C16.8007 18.3338 16.7097 18.3997 16.6341 18.4814C16.5585 18.5631 16.4998 18.6589 16.4613 18.7634C16.4228 18.8678 16.4054 18.9788 16.4099 19.09C16.4144 19.2012 16.4409 19.3105 16.4878 19.4114C17.7041 22.0168 19.7984 24.1111 22.4038 25.3274C22.6095 25.4119 22.8403 25.4119 23.0461 25.3274C23.1515 25.2897 23.2483 25.2314 23.331 25.156C23.4137 25.0806 23.4806 24.9894 23.5278 24.8879L24.0518 23.7047C24.4887 23.861 24.9346 23.9908 25.3871 24.0935C25.6125 24.1442 25.8407 24.1865 26.0717 24.2203C26.2639 24.2615 26.4357 24.3684 26.5576 24.5227C26.6794 24.677 26.7437 24.8689 26.7393 25.0654L26.7562 27.7022Z" fill="white"/>
<line x1="8.11865" y1="39.9868" x2="31.8818" y2="39.9868" stroke="white" stroke-width="1.5" stroke-linecap="round" stroke-linejoin="round"/>
</svg>
