<svg width="18" height="14" viewBox="0 0 18 14" fill="none" xmlns="http://www.w3.org/2000/svg">
<path d="M15.4222 0.368408H2.57811C1.47587 0.368408 0.579102 1.2296 0.579102 2.28813V11.2407C0.579102 12.2992 1.47587 13.1604 2.57811 13.1604H15.4222C16.5245 13.1604 17.4212 12.2992 17.4212 11.2407V2.28813C17.4212 1.2296 16.5245 0.368408 15.4222 0.368408ZM15.4222 11.4656H2.57811C2.41609 11.4656 2.27399 11.3605 2.27399 11.2407V3.47196L8.08305 8.37627C8.20214 8.47685 8.35358 8.53221 8.50953 8.53221L9.49061 8.53226C9.64646 8.53226 9.79799 8.47685 9.91713 8.37627L15.7264 3.47178V11.2408C15.7264 11.3605 15.5842 11.4656 15.4222 11.4656ZM9.00018 6.8494L3.35015 2.06321H14.6502L9.00018 6.8494Z" fill="white"/>
</svg>
