<svg width="48" height="48" viewBox="0 0 48 48" fill="none" xmlns="http://www.w3.org/2000/svg">
<path d="M45.9847 14.6565H42.0421C42.0568 14.4073 42.0788 14.1582 42.0788 13.9017C42.0788 10.1863 40.6351 6.69802 38.0043 4.06718C32.5814 -1.35573 23.7582 -1.35573 18.3353 4.06718C15.4333 6.96916 14.0995 10.8458 14.3047 14.6492H10.582H2.01527C0.901374 14.6565 0 15.5652 0 16.6718V19.6031V45.9847C0 47.0986 0.901374 48 2.01527 48H32.4275H36.971H45.9847C47.0986 48 48 47.0986 48 45.9847V40.855V29.0052V16.6718C48 15.5652 47.0986 14.6565 45.9847 14.6565ZM41.9835 39.1841L37.5206 38.2754V29.5548H46.9008V40.1808L41.9835 39.1841ZM8.55206 40.8843C8.32489 40.6351 8.16366 40.3273 8.04641 39.9756C7.55542 38.4513 8.02443 36.0623 8.51542 33.556C8.51542 33.5414 8.52275 33.5267 8.52275 33.5121L14.0995 34.6479L15.3893 34.9044L17.2067 41.5585C15.8144 41.5585 14.3121 41.6171 12.6852 41.771C10.6186 41.9615 9.27023 41.6757 8.55206 40.8843ZM32.7206 46.9008C31.9218 45.8089 28.3456 41.8663 18.3499 41.5731L16.5985 35.1463L21.9554 36.2308L36.4214 39.1695V46.8934H32.7206V46.9008ZM45.9847 15.7557C46.4904 15.7557 46.9008 16.1661 46.9008 16.6718V28.4556H37.5206V24.2272L38.0116 23.7362C40.1954 21.5524 41.5511 18.7676 41.9469 15.7557H45.9847ZM19.1194 4.8513C21.6183 2.35237 24.894 1.10656 28.1771 1.10656C31.4528 1.10656 34.7359 2.35237 37.2348 4.8513C39.6531 7.26962 40.9869 10.4867 40.9869 13.909C40.9869 14.1582 40.9649 14.4073 40.9502 14.6638C40.9282 15.0302 40.8916 15.3966 40.8403 15.7631C40.4666 18.3426 39.3307 20.7243 37.5279 22.6516C37.4327 22.7542 37.3374 22.8715 37.2421 22.9667L36.4287 23.7802L28.1771 32.0171L19.1194 22.9594C17.0968 20.9368 15.9023 18.3939 15.5212 15.7557C15.4699 15.3893 15.4333 15.0229 15.4113 14.6565C15.2061 11.1316 16.4299 7.54076 19.1194 4.8513ZM14.4147 15.7557C14.8031 18.6797 16.1002 21.5011 18.3426 23.7362L27.7887 33.1823C27.8913 33.2849 28.0305 33.3435 28.1771 33.3435C28.3237 33.3435 28.4629 33.2849 28.5655 33.1823L36.4214 25.3264V29.0052V38.0556L16.2687 33.9591L14.1362 26.1325L11.3075 15.7557H14.4147ZM1.09924 16.6718C1.09924 16.1661 1.50962 15.7557 2.01527 15.7557H10.1643L14.0189 29.8846L15.0669 33.7173L8.73527 32.4348C8.73527 32.4275 8.73527 32.4275 8.73527 32.4202C8.77191 32.2369 8.80122 32.0537 8.83786 31.8705C8.8745 31.658 8.91847 31.4382 8.95512 31.2256C8.98443 31.0571 9.00641 30.8885 9.03573 30.72C9.07237 30.4782 9.10901 30.2363 9.14565 29.9945C9.16763 29.8553 9.18229 29.7087 9.19695 29.5695C9.23359 29.291 9.2629 29.0198 9.28489 28.7487C9.29221 28.6315 9.30687 28.5069 9.3142 28.3896C9.33618 28.0965 9.35084 27.796 9.35817 27.5102C9.35817 27.4076 9.3655 27.2977 9.3655 27.1951C9.3655 26.8947 9.35817 26.5942 9.34351 26.3011C9.33618 26.1985 9.33618 26.0959 9.32885 26.0006C9.30687 25.7002 9.2629 25.407 9.21893 25.1139C9.20428 25.0186 9.19695 24.9234 9.17496 24.8354C9.10168 24.4617 9.02107 24.0879 8.90382 23.7289C8.80122 23.3918 8.67664 23.084 8.5374 22.7982C8.49343 22.7029 8.44214 22.6223 8.39817 22.5344C8.3029 22.3438 8.20031 22.1606 8.09038 21.9921C8.03176 21.9041 7.97313 21.8162 7.9145 21.7282C7.80458 21.5744 7.68733 21.4278 7.56275 21.2812C7.50412 21.2079 7.43817 21.1347 7.37954 21.0687C7.23298 20.9148 7.07908 20.7682 6.91786 20.6363C6.87389 20.5997 6.83725 20.5631 6.80061 20.5264C6.60275 20.3652 6.39756 20.226 6.18504 20.094C6.11908 20.0501 6.05313 20.0208 5.98718 19.9841C5.84061 19.8962 5.68672 19.8156 5.54015 19.7423C5.45954 19.7057 5.37893 19.669 5.29099 19.6324C5.15176 19.5737 5.01252 19.5151 4.86595 19.4638C4.78534 19.4345 4.70473 19.4052 4.62412 19.3832C4.47023 19.3319 4.31634 19.2953 4.16977 19.2513C4.10382 19.2366 4.03786 19.2147 3.97924 19.2C3.76672 19.1487 3.56153 19.1121 3.35634 19.0827C3.28305 19.0608 3.23176 19.0534 3.18046 19.0534C3.02657 19.0315 2.88 19.0168 2.73344 19.0021C2.66015 18.9948 2.5942 18.9948 2.52092 18.9875C2.39634 18.9802 2.27908 18.9728 2.16916 18.9728C2.10321 18.9728 2.03725 18.9655 1.9713 18.9655C1.85405 18.9655 1.75145 18.9655 1.64153 18.9655C1.59023 18.9655 1.53893 18.9655 1.48763 18.9655C1.3484 18.9728 1.22382 18.9802 1.10656 18.9875C1.10656 18.9875 1.09924 18.9875 1.09191 18.9875V16.6718H1.09924ZM2.01527 46.9008C1.50962 46.9008 1.09924 46.4904 1.09924 45.9847V20.0867C1.12855 20.0867 1.15053 20.0794 1.18718 20.0794C1.23115 20.0721 1.27511 20.0721 1.31908 20.0721C1.39969 20.0647 1.48763 20.0647 1.57557 20.0574C1.61221 20.0574 1.64885 20.0501 1.6855 20.0501C1.95664 20.0427 2.26443 20.0427 2.60153 20.0721C2.63817 20.0721 2.67481 20.0794 2.70412 20.0794C2.83603 20.094 2.97527 20.1087 3.1145 20.1234C3.1658 20.1307 3.22443 20.138 3.27573 20.1527C3.40031 20.1747 3.52489 20.1966 3.65679 20.226C3.72275 20.2406 3.78137 20.2553 3.84733 20.2699C3.97191 20.2992 4.10382 20.3359 4.2284 20.3798C4.28702 20.4018 4.35298 20.4165 4.4116 20.4385C4.55817 20.4898 4.70473 20.5484 4.8513 20.6144C4.89527 20.629 4.93191 20.6437 4.97588 20.6656C5.15908 20.7536 5.34962 20.8489 5.5255 20.9588C5.56214 20.9808 5.59878 21.0101 5.63542 21.0321C5.77466 21.12 5.91389 21.2226 6.0458 21.3252C6.10443 21.3692 6.16305 21.4278 6.22168 21.4791C6.3316 21.5744 6.44153 21.6769 6.54412 21.7869C6.60275 21.8528 6.66137 21.9188 6.72 21.9847C6.81527 22.0947 6.91053 22.2192 6.99847 22.3438C7.04977 22.4171 7.1084 22.4977 7.1597 22.571C7.24763 22.7102 7.33557 22.8641 7.41618 23.0253C7.45282 23.106 7.49679 23.1719 7.53343 23.2598C7.65069 23.509 7.75328 23.7655 7.84122 24.0513C7.95115 24.3884 8.03176 24.7402 8.09038 25.0919C8.10504 25.1579 8.10504 25.2311 8.11969 25.2971C8.16366 25.5902 8.20763 25.8907 8.22229 26.1985C8.22962 26.2718 8.22962 26.345 8.22962 26.411C8.24428 26.7188 8.2516 27.0266 8.2516 27.3344C8.2516 27.4223 8.24428 27.5029 8.24428 27.5908C8.23695 27.884 8.22229 28.1771 8.2003 28.4776C8.19298 28.5948 8.17832 28.7121 8.17099 28.8293C8.14901 29.0858 8.11969 29.3496 8.08305 29.6134C8.06107 29.7747 8.03908 29.9359 8.0171 30.0971C7.98779 30.3169 7.95115 30.5295 7.92183 30.7493C7.89252 30.9472 7.85588 31.145 7.81924 31.3502C7.7826 31.5408 7.75328 31.7386 7.71664 31.9292C7.68 32.1417 7.63603 32.3615 7.59206 32.574C7.54076 32.8379 7.48947 33.0943 7.43817 33.3508C7.33557 33.8565 7.24031 34.3548 7.15237 34.8385C6.8226 36.6485 6.60275 38.2974 6.82992 39.6385C6.83725 39.6678 6.84458 39.6898 6.84458 39.7191C6.86657 39.8437 6.89588 39.9682 6.92519 40.0855C7.07908 40.6718 7.3429 41.1847 7.7313 41.6244C7.73863 41.6318 7.74595 41.6391 7.75328 41.6464C7.85588 41.7563 7.9658 41.8663 8.09038 41.9615C8.13435 41.9982 8.18565 42.0275 8.22962 42.0641C8.31756 42.1301 8.41282 42.1887 8.50809 42.2473C8.56672 42.284 8.62534 42.3133 8.68397 42.3426C8.77924 42.3939 8.88183 42.4379 8.98443 42.4818C9.05038 42.5111 9.11634 42.5405 9.18229 42.5624C9.29954 42.6064 9.42412 42.6431 9.5487 42.6797C9.61466 42.6944 9.67328 42.7163 9.73924 42.731C9.92977 42.775 10.1276 42.8116 10.3328 42.8409C10.3988 42.8482 10.4721 42.8556 10.538 42.8629C10.6919 42.8776 10.8385 42.8922 10.9997 42.9069C11.095 42.9142 11.1902 42.9142 11.2928 42.9142C11.3808 42.9142 11.4614 42.9215 11.5493 42.9215C11.586 42.9215 11.6299 42.9142 11.6739 42.9142C12.0256 42.9142 12.3847 42.8995 12.7731 42.8629C13.5939 42.7896 14.4 42.7383 15.1915 42.7017C15.4186 42.6944 15.6385 42.687 15.8583 42.6797C16.4079 42.665 16.9502 42.6577 17.4779 42.665C25.92 42.753 29.7966 45.4791 31.233 46.8934H2.01527V46.9008ZM46.9008 45.9847C46.9008 46.4904 46.4904 46.9008 45.9847 46.9008H37.5206V39.3966L41.7783 40.2614L46.9008 41.3093V45.9847Z" fill="#00BB6D"/>
<path d="M20.5262 15.7557C21.3617 19.2073 24.4688 21.7795 28.1769 21.7795C31.885 21.7795 34.9922 19.2073 35.8276 15.7557C35.9082 15.3966 35.9815 15.0302 36.0182 14.6565C36.0401 14.4073 36.0548 14.1582 36.0548 13.9017C36.0548 9.55603 32.5226 6.02382 28.1769 6.02382C23.8313 6.02382 20.2991 9.55603 20.2991 13.9017C20.2991 14.1582 20.3137 14.4073 20.3357 14.6565C20.3724 15.0302 20.4383 15.3966 20.5262 15.7557ZM28.1769 7.13038C31.9143 7.13038 34.9556 10.1716 34.9556 13.909C34.9556 14.1655 34.9409 14.4147 34.9116 14.6638C34.8676 15.0376 34.7943 15.404 34.6917 15.7631C33.8856 18.6064 31.2695 20.6876 28.1769 20.6876C25.0844 20.6876 22.4682 18.5991 21.6621 15.7631C21.5595 15.404 21.4862 15.0376 21.4423 14.6638C21.413 14.4147 21.3983 14.1655 21.3983 13.909C21.3983 10.1716 24.4395 7.13038 28.1769 7.13038Z" fill="#00BB6D"/>
</svg>
