<svg width="29" height="35" viewBox="0 0 29 35" fill="none" xmlns="http://www.w3.org/2000/svg">
<path d="M28.8468 33.3849C28.8468 33.378 28.8468 33.378 28.8536 33.3712C28.8605 33.3438 28.8673 33.3233 28.8673 33.2959C28.8673 33.289 28.8673 33.2754 28.8742 33.2685C28.881 33.248 28.881 33.2206 28.8879 33.2001C28.8879 33.1864 28.8947 33.1727 28.8947 33.159C28.8947 33.1385 28.9015 33.1179 28.9015 33.1043C28.9015 33.0837 28.9015 33.0632 28.9084 33.0495C28.9084 33.0358 28.9084 33.0221 28.9084 33.0084C28.9084 32.9742 28.9084 32.94 28.9084 32.9058V29.3401C28.9084 28.4573 28.6757 27.5539 28.2651 26.719C28.1898 26.5684 28.1077 26.4178 28.0255 26.2673C27.9434 26.1235 27.8476 25.973 27.7518 25.8361C27.656 25.6924 27.5533 25.5555 27.4506 25.4255C27.3959 25.357 27.3411 25.2954 27.2864 25.227C26.5199 24.3168 25.5344 23.605 24.4667 23.256L23.4059 22.9138L21.8387 22.4142L21.8113 22.3868C21.8045 22.3731 21.7908 22.3663 21.7771 22.3526L20.5315 21.1002C20.3331 20.9017 20.073 20.799 19.8129 20.799C19.7992 20.6485 19.7855 20.4979 19.7855 20.3337C19.7855 20.2857 19.7855 20.2447 19.7787 20.1968C21.1406 18.6432 21.9893 16.5353 22.3178 14.4206C22.3999 14.3384 22.4546 14.2289 22.4615 14.1126L22.7284 11.3477C22.8927 11.2656 23.0022 11.0945 23.0022 10.9028V3.17614C23.0022 2.98451 22.8927 2.81342 22.7284 2.73129C17.5476 0.0895694 11.3608 0.0895694 6.17315 2.73129C6.00205 2.82026 5.89939 2.99136 5.89939 3.17614V10.9028C5.89939 11.1013 6.00889 11.2656 6.17315 11.3477L6.44005 14.1126C6.45374 14.2289 6.50165 14.3384 6.58378 14.4206C6.91228 16.5353 7.76092 18.6364 9.116 20.1899C9.10915 20.4021 9.10231 20.6074 9.08178 20.7922C8.82171 20.799 8.56165 20.9017 8.37002 21.0933L7.1176 22.3457C7.10391 22.3594 7.09706 22.3663 7.08338 22.38L7.056 22.4073L4.42797 23.2491C1.99156 24.0362 0 26.76 0 29.3333V32.8989C0 32.9332 0 32.9674 0 33.0016C0 33.0153 0 33.029 0 33.0427C0 33.0632 0 33.0837 0.00684384 33.0974C0.00684384 33.1179 0.0136877 33.1385 0.0136877 33.1522C0.0136877 33.1659 0.0136877 33.1795 0.0205315 33.1932C0.0205315 33.2138 0.0273754 33.2411 0.0342192 33.2617C0.0342192 33.2685 0.0342192 33.2822 0.041063 33.289C0.0479069 33.3164 0.0547507 33.3438 0.0547507 33.3643C0.0547507 33.3712 0.0547507 33.3712 0.0615946 33.378C0.0684384 33.4054 0.0752823 33.4396 0.0821261 33.467C0.335348 34.3498 1.14977 35 2.11475 35H8.5548H13.3797H15.5218H20.3467H26.7868C27.7518 35 28.5662 34.3498 28.8194 33.467C28.8331 33.4464 28.84 33.4191 28.8468 33.3849ZM16.0009 34.0008L15.6998 28.2794C15.7682 28.2109 15.8298 28.1425 15.8777 28.0603L16.3294 28.512C16.5279 28.7105 16.7879 28.8132 17.0617 28.8132C17.0891 28.8132 17.1164 28.8132 17.1438 28.8132C17.445 28.7926 17.7255 28.6352 17.9035 28.3889L19.7171 25.8977L16.7674 34.0008H16.0009ZM12.1273 34.0008L9.17759 25.8977L10.9912 28.3889C11.1691 28.6352 11.4497 28.7926 11.7509 28.8132C11.7783 28.8132 11.8056 28.8132 11.833 28.8132C12.1068 28.8132 12.3737 28.7037 12.5653 28.512L13.017 28.0603C13.0649 28.1425 13.1265 28.2178 13.1949 28.2794L12.8938 34.0008H12.1273ZM6.90544 26.9448C6.89175 26.7942 6.80962 26.6574 6.68643 26.5752L5.58457 25.8429C5.58457 25.8429 5.57089 25.8361 5.57089 25.8224C5.57089 25.8087 5.57773 25.8019 5.57773 25.795L5.58457 25.7882L7.30922 23.7077L11.0528 33.994H8.82171L5.51614 28.7242C5.50929 28.7105 5.4956 28.6968 5.48876 28.6831C5.47507 28.6558 5.47507 28.6352 5.48876 28.6284L6.76172 27.3554C6.86437 27.2459 6.91912 27.0954 6.90544 26.9448ZM7.41872 13.7499L7.19288 11.4024H7.92517C7.80198 12.1142 7.67195 13.1408 7.59666 13.8457L7.41872 13.7499ZM7.76776 15.0981C7.84304 15.1392 7.92517 15.1597 8.01414 15.1597C8.09626 15.1597 8.17155 15.1392 8.24683 15.105C8.39739 15.0297 8.50005 14.8791 8.51374 14.708C8.60955 13.7225 8.80118 12.1484 8.9449 11.4024H19.9635C20.1072 12.1484 20.292 13.7225 20.3946 14.708C20.4083 14.8791 20.511 15.0228 20.6616 15.105C20.7368 15.146 20.8121 15.1597 20.8942 15.1597C20.9764 15.1597 21.0653 15.1392 21.1406 15.0981L21.1748 15.0776C20.4083 18.4995 18.143 21.6682 14.4542 21.6682C10.7654 21.6682 8.50005 18.5063 7.73354 15.0776L7.76776 15.0981ZM21.4897 13.7499L21.3117 13.8457C21.2364 13.1408 21.1064 12.1142 20.9832 11.4024H21.7155L21.4897 13.7499ZM10.0604 21.107C11.2376 22.0788 12.709 22.6742 14.4474 22.6742C16.1925 22.6742 17.6503 22.0788 18.8343 21.1138C18.8343 21.1344 18.8411 21.1481 18.8411 21.1686C18.8479 21.2097 18.8548 21.2439 18.8685 21.2781L14.4474 25.2544L10.0262 21.2713C10.0399 21.237 10.0468 21.2028 10.0536 21.1686C10.0604 21.1412 10.0604 21.1207 10.0604 21.107ZM13.9135 27.5676C13.893 27.5676 13.8793 27.5539 13.8793 27.5334V27.2049L14.4474 26.6368L15.0154 27.2049V27.5334C15.0154 27.5539 15.0017 27.5676 14.9812 27.5676H13.9135ZM14.1941 28.5736H14.7143L14.9949 34.0076H13.9067L14.1941 28.5736ZM22.1467 27.3486L23.4196 28.6215C23.4333 28.6352 23.4333 28.6558 23.4196 28.6626C23.4059 28.6763 23.3991 28.69 23.3923 28.7037L20.0867 33.9734H17.8556L21.5992 23.6871L23.3238 25.7677L23.3307 25.7745C23.3307 25.7745 23.3375 25.7882 23.3375 25.8019C23.3375 25.8156 23.3238 25.8224 23.3238 25.8224L22.222 26.5547C22.0988 26.6368 22.0166 26.7737 22.003 26.9243C21.9824 27.0954 22.0372 27.2459 22.1467 27.3486ZM27.8955 29.3333V32.8989C27.8955 32.9332 27.8955 32.9674 27.8887 33.0084C27.8887 33.0221 27.8818 33.0427 27.8818 33.0564C27.8818 33.0769 27.875 33.0906 27.875 33.1111C27.8681 33.1316 27.8681 33.1522 27.8613 33.1795C27.8613 33.1864 27.8544 33.2001 27.8544 33.2069C27.8476 33.2343 27.8407 33.2617 27.8271 33.289C27.8271 33.2959 27.8271 33.2959 27.8202 33.3027C27.6765 33.6655 27.348 33.9392 26.9442 33.994H21.2707L24.2272 29.2717C24.5283 28.8611 24.4873 28.2862 24.1245 27.9235L23.2827 27.0817L23.8713 26.6847C24.1177 26.5205 24.2819 26.2536 24.323 25.9593C24.3641 25.665 24.2751 25.3707 24.0835 25.1449L23.0158 23.8582L24.1519 24.221C26.1845 24.8574 27.8955 27.2049 27.8955 29.3333ZM20.7642 22.7564L17.0959 27.8003C17.0959 27.8003 17.0891 27.814 17.0685 27.814C17.0549 27.814 17.048 27.8071 17.0412 27.8071L15.1796 25.9456L19.7719 21.8119C19.7855 21.7982 19.8061 21.7982 19.8198 21.8119L20.7642 22.7564ZM6.90544 3.48411C11.6551 1.1709 17.2465 1.1709 21.9961 3.48411V10.3964H6.90544V3.48411ZM9.08178 21.8119C9.09547 21.7982 9.116 21.7982 9.12968 21.8119L13.7219 25.9456L11.8604 27.8071C11.8604 27.8071 11.8467 27.8208 11.833 27.814C11.8193 27.814 11.8125 27.8003 11.8056 27.8003L8.13733 22.7564L9.08178 21.8119ZM1.00604 29.3333C1.00604 27.2049 2.71701 24.8574 4.74278 24.2141L5.87886 23.8514L4.81122 25.138C4.61959 25.3639 4.53062 25.6582 4.57169 25.9524C4.61275 26.2467 4.777 26.5136 5.02338 26.6779L5.61195 27.0748L4.777 27.9166C4.41428 28.2794 4.37321 28.8542 4.67434 29.2649L7.63088 33.9871H1.95734C1.55355 33.9324 1.2182 33.6586 1.08133 33.2959C1.08133 33.289 1.08133 33.289 1.07448 33.2822C1.06764 33.2548 1.05395 33.2274 1.04711 33.2001C1.04711 33.1932 1.04026 33.1795 1.04026 33.1727C1.03342 33.1522 1.02658 33.1316 1.02658 33.1043C1.02658 33.0837 1.01973 33.07 1.01973 33.0495C1.01973 33.0358 1.01289 33.0153 1.01289 33.0016C1.01289 32.9674 1.00604 32.9332 1.00604 32.8921V29.3333Z" fill="white"/>
<path d="M16.5961 5.57132H14.9536V3.9288C14.9536 3.6482 14.7277 3.4292 14.454 3.4292C14.1802 3.4292 13.9544 3.65505 13.9544 3.9288V5.57132H12.3119C12.0313 5.57132 11.8123 5.79717 11.8123 6.07092C11.8123 6.34468 12.0381 6.57052 12.3119 6.57052H13.9544V8.21304C13.9544 8.49364 14.1802 8.71264 14.454 8.71264C14.7277 8.71264 14.9536 8.4868 14.9536 8.21304V6.57052H16.5961C16.8767 6.57052 17.0957 6.34468 17.0957 6.07092C17.0957 5.79717 16.8767 5.57132 16.5961 5.57132Z" fill="white"/>
</svg>
