<svg width="16" height="14" viewBox="0 0 16 14" fill="none" xmlns="http://www.w3.org/2000/svg">
<path d="M14.101 0.923828H1.89906C0.851928 0.923828 0 1.74197 0 2.74756V11.2525C0 12.2581 0.851928 13.0762 1.89906 13.0762H14.101C15.1481 13.0762 16 12.2581 16 11.2525V2.74756C16 1.74197 15.1481 0.923828 14.101 0.923828ZM14.101 11.4662H1.89906C1.74514 11.4662 1.61015 11.3663 1.61015 11.2525V3.8722L7.12875 8.5313C7.24189 8.62685 7.38576 8.67944 7.5339 8.67944L8.46593 8.67948C8.61399 8.67948 8.75795 8.62685 8.87113 8.5313L14.39 3.87204V11.2526C14.3899 11.3663 14.2549 11.4662 14.101 11.4662ZM8.00002 7.08077L2.63249 2.53389H13.3675L8.00002 7.08077Z" fill="#2F4857"/>
</svg>
