<svg width="40" height="40" viewBox="0 0 40 40" fill="none" xmlns="http://www.w3.org/2000/svg">
<path d="M13.0747 31.4505H17.5511C17.8015 31.4505 18.0091 31.2429 18.0091 30.9925V26.8704H22.0274H26.5038H30.9801C31.2305 26.8704 31.4381 26.6627 31.4381 26.4123V21.8322V17.252V12.6719C31.4381 12.4215 31.2305 12.2139 30.9801 12.2139H26.5038H22.0274H17.5511H13.0747C12.8244 12.2139 12.6167 12.4215 12.6167 12.6719V16.794H8.59841H4.12208C3.86559 16.794 3.66406 16.9955 3.66406 17.252V21.8322V26.4123V30.9925C3.66406 31.2429 3.8717 31.4505 4.12208 31.4505H8.59841H13.0747ZM4.58009 20.6108V17.7101H7.37704H8.1404V21.3742H4.58009V20.6108ZM13.5328 16.0307V13.1299H16.3297H17.0992V16.794H13.5389V16.0307H13.5328ZM30.5343 25.9543H26.974V25.191V22.2902H29.7709H30.5343V25.9543ZM17.0992 30.5345H13.5389V29.7711V26.8704H16.3358H17.0992V30.5345ZM4.58009 29.7711V26.8704H7.37704H8.1404V30.5345H4.58009V29.7711ZM4.58009 25.191V22.2902H7.37704H8.1404V25.9543H4.58009V25.191ZM13.5328 20.6108V17.7101H16.3297H17.0992V21.3742H13.5389V20.6108H13.5328ZM30.5343 21.3742H26.974V20.6108V17.7101H29.7709H30.5343V21.3742ZM17.0992 25.9543H13.5389V25.191V22.2902H16.3358H17.0992V25.9543ZM12.6167 25.9543H9.05643V25.191V22.2902H11.8534H12.6167V25.9543ZM26.0518 21.3742H22.4915V20.6108V17.7101H25.2885H26.0518V21.3742ZM21.5755 21.3742H18.0152V20.6108V17.7101H20.8122H21.5755V21.3742ZM9.05643 29.7711V26.8704H11.8534H12.6167V30.5345H9.05643V29.7711ZM18.0152 25.191V22.2902H20.8122H21.5755V25.9543H18.0152V25.191ZM22.4915 25.191V22.2902H25.2885H26.0518V25.9543H22.4915V25.191ZM30.5343 16.794H26.974V16.0307V13.1299H29.7709H30.5343V16.794ZM26.0518 16.794H22.4915V16.0307V13.1299H25.2885H26.0518V16.794ZM21.5755 16.794H18.0152V16.0307V13.1299H20.8122H21.5755V16.794ZM12.6167 21.3742H9.05643V20.6108V17.7101H11.8534H12.6167V21.3742Z" fill="white"/>
<path d="M39.542 34.1985H35.1145V9.00763V4.12214C35.1145 3.19389 34.3634 2.44275 33.4351 2.44275H30.8397V2.29008C30.8397 1.02595 29.8137 0 28.5496 0C27.2855 0 26.2595 1.02595 26.2595 2.29008V2.44275H23.5114V2.29008C23.5114 1.02595 22.4855 0 21.2214 0C19.9573 0 18.9313 1.02595 18.9313 2.29008V2.44275H16.1832V2.29008C16.1832 1.02595 15.1511 0 13.8931 0C12.6351 0 11.6031 1.02595 11.6031 2.29008V2.44275H8.85496V2.29008C8.85496 1.02595 7.8229 0 6.56489 0C5.30076 0 4.27481 1.02595 4.27481 2.29008V2.44275H1.67939C0.751145 2.44275 0 3.19389 0 4.12214V9.00763V34.6565C0 37.6061 2.39389 40 5.34351 40H34.6565C37.6061 40 40 37.6061 40 34.6565C40 34.4 39.7924 34.1985 39.542 34.1985ZM35.1145 39.0595C34.9618 39.0718 34.8092 39.084 34.6565 39.084H34.1985H8.32977C8.65343 38.8641 8.95878 38.6076 9.22748 38.3206C9.56947 37.9603 9.85649 37.545 10.0824 37.0992C10.3939 36.4947 10.6015 35.829 10.6626 35.1145H32.8183H34.1985H34.6565H35.1145H36.1832H39.0595C38.8458 37.1908 37.1908 38.8458 35.1145 39.0595ZM0.964886 35.2916C0.934351 35.084 0.916031 34.8702 0.916031 34.6565V9.46565H32.8244H34.1985V34.1985H32.8244H10.229C9.97863 34.1985 9.77099 34.4 9.77099 34.6565C9.77099 35.5603 9.49618 36.3969 9.03206 37.0992C8.23817 38.2901 6.88244 39.084 5.34351 39.084C3.12061 39.084 1.27634 37.429 0.964886 35.2916ZM0.916031 7.17557V4.12214C0.916031 3.70076 1.25802 3.35878 1.67939 3.35878H4.72672C4.72672 3.35878 4.72672 3.35878 4.73282 3.35878C4.73893 3.35878 4.73282 3.35878 4.73893 3.35878H7.93893V4.12214C7.93893 4.87939 7.32214 5.49618 6.56489 5.49618C6.3084 5.49618 6.10687 5.70382 6.10687 5.9542C6.10687 6.20458 6.3145 6.41221 6.56489 6.41221C7.82901 6.41221 8.85496 5.38626 8.85496 4.12214V3.35878H12.0611C12.0611 3.35878 12.0611 3.35878 12.0672 3.35878C12.0733 3.35878 12.0672 3.35878 12.0733 3.35878H15.2672V4.12214C15.2672 4.87939 14.6504 5.49618 13.8931 5.49618C13.6366 5.49618 13.4351 5.70382 13.4351 5.9542C13.4351 6.20458 13.6427 6.41221 13.8931 6.41221C15.1573 6.41221 16.1832 5.38626 16.1832 4.12214V3.35878H19.3893C19.3893 3.35878 19.3893 3.35878 19.3954 3.35878C19.4015 3.35878 19.3954 3.35878 19.4015 3.35878H22.5954V4.12214C22.5954 4.87939 21.9786 5.49618 21.2214 5.49618C20.9649 5.49618 20.7634 5.70382 20.7634 5.9542C20.7634 6.20458 20.971 6.41221 21.2214 6.41221C22.4855 6.41221 23.5114 5.38626 23.5114 4.12214V3.35878H26.7176C26.7176 3.35878 26.7176 3.35878 26.7237 3.35878C26.7298 3.35878 26.7237 3.35878 26.7298 3.35878H29.9237V4.12214C29.9237 4.87939 29.3069 5.49618 28.5496 5.49618C28.2931 5.49618 28.0916 5.70382 28.0916 5.9542C28.0916 6.20458 28.2992 6.41221 28.5496 6.41221C29.8137 6.41221 30.8397 5.38626 30.8397 4.12214V3.35878H32.8244H33.4351C33.8565 3.35878 34.1985 3.70076 34.1985 4.12214V8.54962H0.916031V7.17557ZM27.1756 2.29008C27.1756 1.53282 27.7924 0.916031 28.5496 0.916031C29.3069 0.916031 29.9237 1.53282 29.9237 2.29008V2.44275H27.1756V2.29008ZM19.8473 2.29008C19.8473 1.53282 20.4641 0.916031 21.2214 0.916031C21.9786 0.916031 22.5954 1.53282 22.5954 2.29008V2.44275H19.8473V2.29008ZM12.5191 2.29008C12.5191 1.53282 13.1359 0.916031 13.8931 0.916031C14.6504 0.916031 15.2672 1.53282 15.2672 2.29008V2.44275H12.5191V2.29008ZM5.19084 2.29008C5.19084 1.53282 5.80763 0.916031 6.56489 0.916031C7.32214 0.916031 7.93893 1.53282 7.93893 2.29008V2.44275H5.19084V2.29008Z" fill="white"/>
<path d="M25.2214 32.2136C25.2214 32.464 25.4291 32.6716 25.6795 32.6716H31.6031C31.8535 32.6716 32.0611 32.464 32.0611 32.2136C32.0611 31.9632 31.8535 31.7556 31.6031 31.7556H25.6795C25.4291 31.7556 25.2214 31.9571 25.2214 32.2136Z" fill="white"/>
<path d="M23.2366 31.7556H21.832C21.5817 31.7556 21.374 31.9571 21.374 32.2136C21.374 32.464 21.5817 32.6716 21.832 32.6716H23.2366C23.487 32.6716 23.6946 32.464 23.6946 32.2136C23.6946 31.9571 23.487 31.7556 23.2366 31.7556Z" fill="white"/>
</svg>
