<svg width="55" height="43" viewBox="0 0 55 43" fill="none" xmlns="http://www.w3.org/2000/svg">
<path d="M50.8141 25.7434L47.0841 25.0931C46.8823 25.0557 46.688 24.9959 46.5086 24.9137C45.8209 24.6072 45.3201 24.0092 45.1407 23.2692L44.9687 22.5815C46.7627 21.0641 47.9437 18.5451 47.9437 15.7047C47.9437 15.4356 47.9288 15.1665 47.9064 14.8974C47.8914 14.718 47.869 14.5461 47.8391 14.3741C47.8316 14.2994 47.8241 14.2172 47.8092 14.1424C47.8017 14.1125 47.8017 14.0826 47.7942 14.0527C47.7942 14.0378 47.7793 14.0228 47.7793 14.0079C47.1364 10.6666 44.5726 8.52134 40.9921 8.52134C37.6359 8.52134 35.1767 10.405 34.347 13.3875C34.347 13.3949 34.332 13.4024 34.332 13.4099C34.3171 13.4547 34.3171 13.5071 34.3021 13.5519C34.2348 13.821 34.1825 14.0976 34.1377 14.3816C34.1227 14.4713 34.1152 14.5685 34.1003 14.6582C34.0629 14.9946 34.033 15.3384 34.033 15.6897C34.033 16.041 34.048 16.3924 34.0853 16.7362L32.9865 16.5419C32.7847 16.5045 32.5904 16.4447 32.411 16.3625C31.7233 16.056 31.2225 15.458 31.0431 14.718L30.8712 14.0303C32.6651 12.5129 33.8462 9.99388 33.8462 7.15344C33.8462 6.88434 33.8312 6.61525 33.8088 6.34615C33.7938 6.16676 33.7714 5.99484 33.7415 5.82291C33.734 5.74817 33.7266 5.66594 33.7116 5.59119C33.7041 5.56129 33.7041 5.53139 33.6967 5.50149C33.6967 5.48655 33.6817 5.4716 33.6817 5.45665C33.0389 2.14528 30.475 0 26.8945 0C23.5383 0 21.0791 1.88366 20.2494 4.86613C20.2494 4.87361 20.2344 4.88108 20.2344 4.88856C20.2195 4.93341 20.2195 4.98573 20.2045 5.03058C20.1373 5.29967 20.0849 5.57624 20.0401 5.86029C20.0251 5.94999 20.0177 6.04716 20.0027 6.13686C19.9653 6.47323 19.9354 6.81707 19.9354 7.16839C19.9354 10.0163 21.1165 12.5279 22.9104 14.0453L22.7385 14.7329C22.5516 15.4655 22.0583 16.0635 21.3706 16.3774C21.2286 16.4447 21.0716 16.4821 20.9146 16.5194C20.9371 16.2503 20.9595 15.9812 20.9595 15.7047C20.9595 15.4356 20.9445 15.1665 20.9221 14.8974C20.9072 14.718 20.8848 14.5461 20.8549 14.3741C20.8474 14.2994 20.8399 14.2172 20.825 14.1424C20.8175 14.1125 20.8175 14.0826 20.81 14.0527C20.81 14.0378 20.7951 14.0228 20.7951 14.0079C20.1522 10.6666 17.5883 8.52134 14.0079 8.52134C10.6517 8.52134 8.19244 10.405 7.36273 13.3875C7.36273 13.3949 7.34778 13.4024 7.34778 13.4099C7.33283 13.4547 7.33283 13.5071 7.31788 13.5519C7.25061 13.821 7.19829 14.0976 7.15344 14.3816C7.13849 14.4713 7.13101 14.5685 7.11606 14.6582C7.07869 14.9946 7.04879 15.3384 7.04879 15.6897C7.04879 18.5376 8.22982 21.0492 10.0238 22.5666L9.85186 23.2543C9.66499 23.9868 9.17165 24.5848 8.48396 24.8988C8.29709 24.981 8.10275 25.0408 7.9084 25.0781L4.18592 25.7434C1.76407 26.162 0 28.2699 0 30.7516V42.2255C0 42.5394 0.254145 42.7936 0.560614 42.7936H6.16676H21.864H27.4701C27.4776 42.7936 27.4925 42.7861 27.5 42.7861C27.5075 42.7861 27.5224 42.7936 27.5299 42.7936H33.136H48.8332H54.4394C54.7459 42.7936 55 42.5394 55 42.2255V30.7516C55 28.2699 53.2434 26.162 50.8141 25.7434ZM45.0809 25.3024L44.2063 25.6537L43.3542 25.9976L40.9846 26.9469L40.9099 26.917L39.7887 26.4685L39.2131 26.2367L38.6151 25.9976L37.7705 25.6537L36.8959 25.3024C37.0379 25.1678 37.165 25.0183 37.2846 24.8614C37.5836 24.4802 37.8004 24.0317 37.9274 23.5458L37.9947 23.2767C38.5553 23.6056 39.1608 23.8373 39.7887 23.9719C39.9083 23.9943 40.0353 24.0242 40.1549 24.0466C40.4016 24.084 40.6557 24.0989 40.9099 24.1064C40.9323 24.1064 40.9622 24.1139 40.9846 24.1139C42.0535 24.1139 43.0701 23.8074 43.9746 23.2842L44.0419 23.5533C44.1615 24.0391 44.3857 24.4876 44.6847 24.8688C44.8043 25.0258 44.9314 25.1753 45.0809 25.3024ZM40.9846 9.65752C42.3824 9.65752 43.5859 10.0313 44.5277 10.7115C45.5144 11.4141 46.217 12.4456 46.5609 13.7388C45.1182 14.0453 43.1524 14.1798 41.1715 13.4473C40.1325 13.0586 39.1533 12.8568 38.2713 12.7671C37.3145 12.6699 36.4624 12.7147 35.7373 12.8269C36.6268 10.846 38.488 9.65752 40.9846 9.65752ZM35.1617 15.7121C35.1617 15.4505 35.1767 15.1889 35.1991 14.9348C35.2066 14.8525 35.2215 14.7703 35.229 14.6881C35.2514 14.5236 35.2738 14.3592 35.3037 14.2022C35.3112 14.1499 35.3262 14.0901 35.3411 14.0378C35.9541 13.9107 36.709 13.821 37.5686 13.8509C38.2563 13.8733 39.0113 13.978 39.826 14.2022C40.14 14.2845 40.4539 14.3816 40.7828 14.5087C42.9954 15.3309 45.1706 15.1889 46.7627 14.8525C46.7627 14.8824 46.7702 14.9123 46.7702 14.9422C46.7926 15.1889 46.8076 15.4505 46.8076 15.7047C46.8076 18.0443 45.918 20.1223 44.5352 21.4528C44.3633 21.6173 44.1914 21.7668 44.012 21.9013C43.7279 22.1181 43.4214 22.3124 43.1075 22.4694C42.4497 22.7908 41.7321 22.9777 40.9772 22.9777C40.9547 22.9777 40.9248 22.9702 40.9024 22.9702C40.738 22.9702 40.581 22.9553 40.424 22.9403C40.2073 22.9179 39.9905 22.8731 39.7812 22.8207C39.5794 22.7684 39.385 22.7011 39.1907 22.6264C39.0786 22.5815 38.9664 22.5292 38.8543 22.4694C38.6525 22.3722 38.4581 22.2601 38.2638 22.1331C38.1591 22.0583 38.0545 21.9836 37.9498 21.9013C37.7705 21.7593 37.5911 21.6098 37.4266 21.4528C36.5521 20.6082 35.8793 19.4645 35.4981 18.1415C35.386 17.7603 35.3112 17.3641 35.2514 16.953C35.1991 16.5493 35.1617 16.1382 35.1617 15.7121ZM26.8945 1.1287C28.2923 1.1287 29.4958 1.50245 30.4376 2.18266C31.4243 2.88529 32.1269 3.91682 32.4708 5.20998C31.0281 5.51644 29.0622 5.65099 27.0814 4.91846C26.0424 4.52976 25.0632 4.32794 24.1812 4.23824C23.2244 4.14107 22.3722 4.18592 21.6472 4.29804C22.5292 2.30973 24.3979 1.1287 26.8945 1.1287ZM21.0641 7.17586C21.0641 6.91424 21.0791 6.65262 21.1015 6.39848C21.109 6.31625 21.1239 6.23403 21.1314 6.15181C21.1538 5.98736 21.1763 5.82291 21.2062 5.66594C21.2136 5.61362 21.2286 5.55382 21.2435 5.50149C21.8565 5.37442 22.6114 5.28472 23.4711 5.31462C24.1587 5.33705 24.9137 5.4417 25.7285 5.66594C26.0424 5.74817 26.3563 5.84534 26.6852 5.97241C28.8978 6.79464 31.073 6.65262 32.6651 6.31625C32.6651 6.34615 32.6726 6.37605 32.6726 6.40595C32.695 6.65262 32.71 6.91424 32.71 7.16839C32.71 9.50802 31.8205 11.586 30.4376 12.9166C30.2657 13.081 30.0938 13.2305 29.9144 13.365C29.6303 13.5818 29.3239 13.7762 29.0099 13.9331C28.3521 14.2546 27.6345 14.4414 26.8796 14.4414C26.6927 14.4414 26.5058 14.4265 26.3264 14.404C25.9004 14.3517 25.4893 14.2471 25.0931 14.0826C24.981 14.0378 24.8688 13.9855 24.7567 13.9257C24.5549 13.8285 24.3606 13.7164 24.1662 13.5893C24.0616 13.5145 23.9569 13.4398 23.8523 13.3576C23.6729 13.2155 23.4935 13.0661 23.329 12.9091C21.9611 11.5935 21.0641 9.51549 21.0641 7.17586ZM23.1945 16.3326C23.4935 15.9513 23.7102 15.5029 23.8373 15.017L23.9046 14.7479C24.5773 15.1366 25.3024 15.3982 26.0648 15.5103C26.3339 15.5477 26.6105 15.5776 26.8945 15.5776C27.9634 15.5776 28.98 15.2711 29.8845 14.7479L29.9518 15.017C30.0714 15.5029 30.2956 15.9513 30.5946 16.3326C30.7142 16.4895 30.8413 16.639 30.9833 16.7736L30.1087 17.1249L29.2641 17.4687L26.8945 18.418L25.123 17.7079L24.525 17.4687L23.6803 17.1249L22.8058 16.7736C22.9478 16.639 23.0749 16.4895 23.1945 16.3326ZM20.9894 17.678C21.0567 17.6631 21.1165 17.6407 21.1763 17.6257C21.3183 17.5958 21.4528 17.5584 21.5874 17.5061L21.7369 17.5659L22.3573 17.8126L23.1123 18.1191L26.3339 19.4122L26.618 19.5243L26.6553 19.5393L26.6852 19.5542C26.7151 19.5692 26.7525 19.5692 26.7824 19.5767C26.8198 19.5841 26.8497 19.5991 26.8871 19.5991C26.9543 19.5991 27.0141 19.5841 27.0739 19.5617C27.0814 19.5617 27.0889 19.5617 27.0964 19.5542L27.1487 19.5318L27.4477 19.4122L28.0756 19.1581L31.4168 17.8126L32.0372 17.5584L32.1867 17.4986C32.3213 17.551 32.4633 17.5883 32.5979 17.6182C32.6576 17.6332 32.7249 17.6631 32.7847 17.6706L34.2797 17.9322C34.7132 19.8383 35.6924 21.4753 37.0005 22.589L36.8286 23.2767C36.6418 24.0092 36.1484 24.6072 35.4607 24.9212C35.4084 24.9436 35.3486 24.9511 35.2963 24.9735V23.1795V22.9852C35.2963 22.6712 35.0421 22.4171 34.7357 22.4171C34.4292 22.4171 34.175 22.6712 34.175 22.9852V23.1795V25.2202L31.1477 25.7434C29.5033 26.0275 28.1802 27.0964 27.4925 28.5166C26.7974 27.0964 25.4818 26.0275 23.8373 25.7434L20.1074 25.0931C19.9354 25.0632 19.7635 25.0034 19.5991 24.9361V23.7327C19.5991 23.4187 19.3449 23.1646 19.0385 23.1646C18.732 23.1646 18.4778 23.4187 18.4778 23.7327V23.9943C18.3358 23.7775 18.2237 23.5383 18.1564 23.2767L17.9845 22.589C19.3449 21.4379 20.3466 19.7187 20.7577 17.7154L20.9894 17.678ZM14.0154 9.65752C15.4132 9.65752 16.6166 10.0313 17.5584 10.7115C18.5451 11.4141 19.2478 12.4456 19.5916 13.7388C18.149 14.0453 16.1831 14.1798 14.2022 13.4473C13.1632 13.0586 12.184 12.8568 11.302 12.7671C10.3452 12.6699 9.49307 12.7147 8.76801 12.8269C9.65004 10.846 11.5188 9.65752 14.0154 9.65752ZM8.18497 15.7121C8.18497 15.4505 8.19992 15.1889 8.22234 14.9348C8.22982 14.8525 8.24477 14.7703 8.25224 14.6881C8.27467 14.5236 8.29709 14.3592 8.32699 14.2022C8.33447 14.1499 8.34941 14.0901 8.36436 14.0378C8.9773 13.9107 9.73226 13.821 10.5919 13.8509C11.2796 13.8733 12.0345 13.978 12.8493 14.2022C13.1632 14.2845 13.4772 14.3816 13.8061 14.5087C16.0186 15.3309 18.1938 15.1889 19.7859 14.8525C19.7859 14.8824 19.7934 14.9123 19.7934 14.9422C19.8158 15.1889 19.8308 15.4505 19.8308 15.7047C19.8308 16.056 19.8009 16.3998 19.7635 16.7362C19.7187 17.1473 19.6439 17.536 19.5393 17.9247C19.173 19.3375 18.4778 20.5633 17.5584 21.4528C17.3865 21.6173 17.2146 21.7668 17.0352 21.9013C16.7512 22.1181 16.4447 22.3124 16.1307 22.4694C15.473 22.7908 14.7554 22.9777 14.0004 22.9777C13.9929 22.9777 13.9929 22.9777 13.9855 22.9777C13.8061 22.9777 13.6267 22.9628 13.4473 22.9403C13.2529 22.9179 13.0586 22.8805 12.8642 22.8282C12.64 22.7759 12.4232 22.7086 12.2139 22.6189C12.1018 22.5741 11.9897 22.5217 11.8775 22.4619C11.6757 22.3648 11.4814 22.2526 11.287 22.1256C11.1824 22.0508 11.0777 21.9761 10.9731 21.8939C10.7937 21.7518 10.6143 21.6023 10.4499 21.4454C9.08195 20.1223 8.18497 18.0443 8.18497 15.7121ZM10.3153 24.8688C10.6143 24.4876 10.8311 24.0391 10.9581 23.5533L11.0254 23.2842C11.601 23.6205 12.2289 23.8597 12.8792 23.9868C12.9838 24.0092 13.081 24.0317 13.1856 24.0466C13.4547 24.084 13.7238 24.1139 14.0004 24.1139C14.0079 24.1139 14.0079 24.1139 14.0154 24.1139C15.0843 24.1139 16.1008 23.8074 17.0053 23.2842L17.0726 23.5533C17.1922 24.0391 17.4164 24.4876 17.7154 24.8688C17.835 25.0258 17.9621 25.1753 18.1041 25.3099L17.2295 25.6612L16.3849 26.005L14.0154 26.9543L14.0004 26.9469L12.8792 26.4984L12.2438 26.2442L11.6458 26.005L10.8012 25.6612L9.92661 25.3099C10.0686 25.1753 10.1957 25.0258 10.3153 24.8688ZM26.9095 41.6574H22.4246V34.2573V33.1286V31.7083V31.514C22.4246 31.2001 22.1704 30.9459 21.864 30.9459C21.5575 30.9459 21.3033 31.2001 21.3033 31.514V31.7083V33.1286V34.2573V41.6574H6.72737V36.3727V32.2615C6.72737 31.9475 6.47323 31.6934 6.16676 31.6934C5.86029 31.6934 5.60614 31.9475 5.60614 32.2615V37.5387V41.6499H2.92267H1.12123V30.7516C1.12123 28.823 2.48913 27.1861 4.38027 26.8572L8.11022 26.2069C8.17749 26.1919 8.23729 26.1695 8.29709 26.1545C8.43911 26.1246 8.57366 26.0873 8.70821 26.0349L8.85771 26.0947L9.47812 26.3414L10.2331 26.6479L12.8792 27.7093L13.4547 27.941L13.7388 28.0531L13.7762 28.0681L13.8061 28.083C13.836 28.098 13.8733 28.098 13.9032 28.1055C13.9331 28.1129 13.963 28.1279 13.9929 28.1279H14.0004C14.0677 28.1279 14.1275 28.1129 14.1873 28.0905C14.1948 28.0905 14.2022 28.0905 14.2097 28.083L14.262 28.0606L14.561 27.941L15.1889 27.6869L18.4629 26.3713L18.5302 26.3489L19.1506 26.0947L19.3001 26.0349C19.3973 26.0723 19.487 26.0947 19.5841 26.1171C19.629 26.1246 19.6663 26.1471 19.7112 26.1545C19.771 26.1695 19.8383 26.1994 19.8981 26.2069L23.628 26.8572C25.5117 27.1861 26.8871 28.823 26.8871 30.7516V31.7083V33.1286V34.2573V41.6574H26.9095ZM53.8788 31.7083V41.6574H49.3939V31.7083V31.514C49.3939 31.2001 49.1397 30.9459 48.8332 30.9459C48.5268 30.9459 48.2726 31.2001 48.2726 31.514V31.7083V41.6574H33.6967V36.3727V34.2498V33.1211V32.2615C33.6967 31.9475 33.4425 31.6934 33.136 31.6934C32.8296 31.6934 32.5754 31.9475 32.5754 32.2615V33.1211V34.2498V37.5387V41.6499H29.892H28.0905V34.2498V33.1211V30.7441C28.0905 28.8156 29.4584 27.1786 31.3495 26.8497L34.1825 26.3563L35.0795 26.1994C35.1468 26.1844 35.2066 26.162 35.2664 26.147C35.2813 26.147 35.2888 26.1396 35.3037 26.1396C35.4308 26.1097 35.5579 26.0723 35.6775 26.0275L35.827 26.0873L36.4474 26.3339L37.2024 26.6404L39.7812 27.6794L40.4165 27.9335L40.7006 28.0457L40.738 28.0606L40.7679 28.0756C40.7978 28.0905 40.8351 28.0905 40.865 28.098C40.8725 28.098 40.8875 28.1055 40.8949 28.1055C40.9174 28.1129 40.9398 28.1204 40.9697 28.1204C41.037 28.1204 41.0968 28.1055 41.1566 28.083C41.164 28.083 41.1715 28.083 41.179 28.0756L41.2313 28.0531L41.5303 27.9335L42.1582 27.6794L45.4995 26.3339L46.1199 26.0798L46.2694 26.02C46.4039 26.0723 46.5459 26.1097 46.6805 26.1396C46.7403 26.1545 46.8076 26.1844 46.8674 26.1919L50.5973 26.8422C52.481 27.1711 53.8563 28.8081 53.8563 30.7366V31.7083H53.8788Z" fill="#00BB6D"/>
</svg>
