<svg width="56" height="56" viewBox="0 0 56 56" fill="none" xmlns="http://www.w3.org/2000/svg">
<rect width="56" height="56" fill="#00BB6D"/>
<g clip-path="url(#clip0)">
<path d="M28.0003 12.4474C19.5942 12.2816 12.6382 18.9477 12.4463 27.3533C12.4682 31.6321 14.3628 35.6867 17.6309 38.4485V42.9073C17.6309 43.2653 17.9211 43.5554 18.2791 43.5554C18.4005 43.5554 18.5195 43.5213 18.6225 43.4569L22.2349 41.2003C24.0754 41.9043 26.0298 42.2632 28.0003 42.2593C36.4065 42.425 43.3624 35.7589 43.5544 27.3534C43.3624 18.9477 36.4065 12.2816 28.0003 12.4474Z" fill="white"/>
<path d="M38.2396 23.076C38.0467 22.8175 37.6932 22.7402 37.41 22.8945L30.67 26.5692L26.4769 22.9736C26.2198 22.7531 25.8363 22.7678 25.5968 23.0073L17.8198 30.7843C17.5675 31.0381 17.5687 31.4485 17.8226 31.7008C18.0256 31.9026 18.3368 31.9473 18.5884 31.8109L25.3285 28.1362L29.5255 31.7331C29.7826 31.9535 30.1661 31.9389 30.4056 31.6994L38.1826 23.9224C38.4092 23.6936 38.4335 23.3331 38.2396 23.076Z" fill="#00BB6D"/>
</g>
<defs>
<clipPath id="clip0">
<rect width="31.1111" height="31.1111" fill="white" transform="translate(12.4443 12.4443)"/>
</clipPath>
</defs>
</svg>
