<svg width="40" height="40" viewBox="0 0 40 40" fill="none" xmlns="http://www.w3.org/2000/svg">
<path d="M38.3206 12.2137H35.0351C35.0473 12.0061 35.0656 11.7985 35.0656 11.5847C35.0656 8.48855 33.8626 5.58168 31.6702 3.38931C27.1511 -1.12977 19.7985 -1.12977 15.2794 3.38931C12.8611 5.80763 11.7496 9.03817 11.9206 12.2076H8.81832H1.67939C0.751145 12.2137 0 12.971 0 13.8931V16.3359V38.3206C0 39.2489 0.751145 40 1.67939 40H27.0229H30.8092H38.3206C39.2489 40 40 39.2489 40 38.3206V34.0458V24.171V13.8931C40 12.971 39.2489 12.2137 38.3206 12.2137ZM34.9863 32.6534L31.2672 31.8962V24.629H39.084V33.484L34.9863 32.6534ZM7.12672 34.0702C6.9374 33.8626 6.80305 33.6061 6.70534 33.313C6.29618 32.0427 6.68702 30.0519 7.09618 27.9634C7.09618 27.9511 7.10229 27.9389 7.10229 27.9267L11.7496 28.8733L12.8244 29.087L14.3389 34.6321C13.1786 34.6321 11.9267 34.6809 10.571 34.8092C8.84886 34.9679 7.72519 34.7298 7.12672 34.0702ZM27.2672 39.084C26.6015 38.174 23.6214 34.8885 15.2916 34.6443L13.8321 29.2885L18.2962 30.1924L30.3511 32.6412V39.0779H27.2672V39.084ZM38.3206 13.1298C38.742 13.1298 39.084 13.4718 39.084 13.8931V23.713H31.2672V20.1893L31.6763 19.7802C33.4962 17.9603 34.626 15.6397 34.9557 13.1298H38.3206ZM15.9328 4.04275C18.0153 1.96031 20.745 0.922137 23.4809 0.922137C26.2107 0.922137 28.9466 1.96031 31.029 4.04275C33.0443 6.05802 34.1557 8.73893 34.1557 11.5908C34.1557 11.7985 34.1374 12.0061 34.1252 12.2198C34.1069 12.5252 34.0763 12.8305 34.0336 13.1359C33.7221 15.2855 32.7756 17.2702 31.2733 18.8763C31.1939 18.9618 31.1145 19.0595 31.0351 19.1389L30.3573 19.8168L23.4809 26.6809L15.9328 19.1328C14.2473 17.4473 13.2519 15.3282 12.9344 13.1298C12.8916 12.8244 12.8611 12.5191 12.8427 12.2137C12.6718 9.27634 13.6916 6.28397 15.9328 4.04275ZM12.0122 13.1298C12.3359 15.5664 13.4168 17.9176 15.2855 19.7802L23.1573 27.6519C23.2427 27.7374 23.3588 27.7863 23.4809 27.7863C23.6031 27.7863 23.7191 27.7374 23.8046 27.6519L30.3511 21.1053V24.171V31.713L13.5573 28.2992L11.7802 21.7771L9.4229 13.1298H12.0122ZM0.916031 13.8931C0.916031 13.4718 1.25802 13.1298 1.67939 13.1298H8.47023L11.6824 24.9038L12.5557 28.0977L7.27939 27.029C7.27939 27.0229 7.27939 27.0229 7.27939 27.0168C7.30992 26.8641 7.33435 26.7114 7.36489 26.5588C7.39542 26.3817 7.43206 26.1985 7.4626 26.0214C7.48702 25.8809 7.50534 25.7405 7.52977 25.6C7.56031 25.3985 7.59084 25.1969 7.62137 24.9954C7.63969 24.8794 7.65191 24.7572 7.66412 24.6412C7.69466 24.4092 7.71908 24.1832 7.7374 23.9573C7.74351 23.8595 7.75572 23.7557 7.76183 23.658C7.78015 23.4137 7.79237 23.1634 7.79847 22.9252C7.79847 22.8397 7.80458 22.7481 7.80458 22.6626C7.80458 22.4122 7.79847 22.1618 7.78626 21.9176C7.78015 21.8321 7.78015 21.7466 7.77405 21.6672C7.75572 21.4168 7.71908 21.1725 7.68244 20.9282C7.67023 20.8489 7.66412 20.7695 7.6458 20.6962C7.58473 20.3847 7.51756 20.0733 7.41985 19.774C7.33435 19.4931 7.23053 19.2366 7.1145 18.9985C7.07786 18.9191 7.03511 18.8519 6.99847 18.7786C6.91908 18.6198 6.83359 18.4672 6.74198 18.3267C6.69313 18.2534 6.64427 18.1802 6.59542 18.1069C6.50382 17.9786 6.40611 17.8565 6.30229 17.7344C6.25343 17.6733 6.19847 17.6122 6.14962 17.5573C6.02748 17.429 5.89924 17.3069 5.76489 17.1969C5.72824 17.1664 5.69771 17.1359 5.66718 17.1053C5.50229 16.971 5.3313 16.855 5.1542 16.745C5.09924 16.7084 5.04427 16.684 4.98931 16.6534C4.86718 16.5802 4.73893 16.513 4.61679 16.4519C4.54962 16.4214 4.48244 16.3908 4.40916 16.3603C4.29313 16.3115 4.1771 16.2626 4.05496 16.2198C3.98779 16.1954 3.92061 16.171 3.85344 16.1527C3.72519 16.1099 3.59695 16.0794 3.47481 16.0427C3.41985 16.0305 3.36489 16.0122 3.31603 16C3.13893 15.9573 2.96794 15.9267 2.79695 15.9023C2.73588 15.884 2.69313 15.8779 2.65038 15.8779C2.52214 15.8595 2.4 15.8473 2.27786 15.8351C2.21679 15.829 2.16183 15.829 2.10076 15.8229C1.99695 15.8168 1.89924 15.8107 1.80763 15.8107C1.75267 15.8107 1.69771 15.8046 1.64275 15.8046C1.54504 15.8046 1.45954 15.8046 1.36794 15.8046C1.32519 15.8046 1.28244 15.8046 1.23969 15.8046C1.12366 15.8107 1.01985 15.8168 0.922137 15.8229C0.922137 15.8229 0.916031 15.8229 0.909924 15.8229V13.8931H0.916031ZM1.67939 39.084C1.25802 39.084 0.916031 38.742 0.916031 38.3206V16.7389C0.940458 16.7389 0.958779 16.7328 0.989313 16.7328C1.02595 16.7267 1.0626 16.7267 1.09924 16.7267C1.16641 16.7206 1.23969 16.7206 1.31298 16.7145C1.34351 16.7145 1.37405 16.7084 1.40458 16.7084C1.63053 16.7023 1.88702 16.7023 2.16794 16.7267C2.19847 16.7267 2.22901 16.7328 2.25344 16.7328C2.36336 16.745 2.47939 16.7573 2.59542 16.7695C2.63817 16.7756 2.68702 16.7817 2.72977 16.7939C2.83359 16.8122 2.9374 16.8305 3.04733 16.855C3.10229 16.8672 3.15114 16.8794 3.20611 16.8916C3.30992 16.916 3.41985 16.9466 3.52366 16.9832C3.57252 17.0015 3.62748 17.0137 3.67634 17.0321C3.79847 17.0748 3.92061 17.1237 4.04275 17.1786C4.07939 17.1908 4.10992 17.2031 4.14656 17.2214C4.29924 17.2947 4.45802 17.374 4.60458 17.4656C4.63511 17.484 4.66565 17.5084 4.69618 17.5267C4.81221 17.6 4.92824 17.6855 5.03817 17.771C5.08702 17.8076 5.13588 17.8565 5.18473 17.8992C5.27634 17.9786 5.36794 18.0641 5.45344 18.1557C5.50229 18.2107 5.55115 18.2656 5.6 18.3206C5.67939 18.4122 5.75878 18.516 5.83206 18.6198C5.87481 18.6809 5.92366 18.7481 5.96641 18.8092C6.03969 18.9252 6.11298 19.0534 6.18015 19.1878C6.21069 19.255 6.24733 19.3099 6.27786 19.3832C6.37557 19.5908 6.46107 19.8046 6.53435 20.0427C6.62595 20.3237 6.69313 20.6168 6.74198 20.9099C6.7542 20.9649 6.7542 21.026 6.76641 21.0809C6.80305 21.3252 6.83969 21.5756 6.85191 21.8321C6.85802 21.8931 6.85802 21.9542 6.85802 22.0092C6.87023 22.2656 6.87634 22.5221 6.87634 22.7786C6.87634 22.8519 6.87023 22.9191 6.87023 22.9924C6.86412 23.2366 6.85191 23.4809 6.83359 23.7313C6.82748 23.829 6.81527 23.9267 6.80916 24.0244C6.79084 24.2382 6.76641 24.458 6.73588 24.6779C6.71756 24.8122 6.69924 24.9466 6.68092 25.0809C6.65649 25.2641 6.62595 25.4412 6.60153 25.6244C6.5771 25.7893 6.54657 25.9542 6.51603 26.1252C6.4855 26.284 6.46107 26.4489 6.43053 26.6076C6.4 26.7847 6.36336 26.9679 6.32672 27.145C6.28397 27.3649 6.24122 27.5786 6.19847 27.7924C6.11298 28.2137 6.03359 28.629 5.96031 29.0321C5.6855 30.5405 5.50229 31.9145 5.6916 33.0321C5.69771 33.0565 5.70382 33.0748 5.70382 33.0992C5.72214 33.2031 5.74656 33.3069 5.77099 33.4046C5.89924 33.8931 6.11908 34.3206 6.44275 34.687C6.44885 34.6931 6.45496 34.6992 6.46107 34.7053C6.54656 34.7969 6.63817 34.8885 6.74198 34.9679C6.77863 34.9985 6.82137 35.0229 6.85802 35.0534C6.9313 35.1084 7.01069 35.1572 7.09008 35.2061C7.13893 35.2366 7.18779 35.2611 7.23664 35.2855C7.31603 35.3282 7.40153 35.3649 7.48702 35.4015C7.54199 35.426 7.59695 35.4504 7.65191 35.4687C7.74962 35.5053 7.85344 35.5359 7.95725 35.5664C8.01221 35.5786 8.06107 35.5969 8.11603 35.6092C8.27481 35.6458 8.43969 35.6763 8.61069 35.7008C8.66565 35.7069 8.72672 35.713 8.78168 35.7191C8.90992 35.7313 9.03206 35.7435 9.16641 35.7557C9.2458 35.7618 9.32519 35.7618 9.41069 35.7618C9.48397 35.7618 9.55115 35.7679 9.62443 35.7679C9.65496 35.7679 9.6916 35.7618 9.72824 35.7618C10.0214 35.7618 10.3206 35.7496 10.6443 35.7191C11.3282 35.658 12 35.6153 12.6595 35.5847C12.8489 35.5786 13.0321 35.5725 13.2153 35.5664C13.6733 35.5542 14.1252 35.5481 14.5649 35.5542C21.6 35.6275 24.8305 37.8992 26.0275 39.0779H1.67939V39.084ZM39.084 38.3206C39.084 38.742 38.742 39.084 38.3206 39.084H31.2672V32.8305L34.8153 33.5511L39.084 34.4244V38.3206Z" fill="white"/>
<path d="M17.1053 13.1297C17.8015 16.006 20.3908 18.1495 23.4809 18.1495C26.571 18.1495 29.1603 16.006 29.8565 13.1297C29.9236 12.8305 29.9847 12.5251 30.0153 12.2137C30.0336 12.006 30.0458 11.7984 30.0458 11.5847C30.0458 7.96329 27.1023 5.01978 23.4809 5.01978C19.8595 5.01978 16.916 7.96329 16.916 11.5847C16.916 11.7984 16.9282 12.006 16.9465 12.2137C16.9771 12.5251 17.032 12.8305 17.1053 13.1297ZM23.4809 5.94191C26.5954 5.94191 29.1298 8.47626 29.1298 11.5908C29.1298 11.8045 29.1175 12.0121 29.0931 12.2198C29.0565 12.5312 28.9954 12.8366 28.9099 13.1358C28.2382 15.5053 26.058 17.2396 23.4809 17.2396C20.9038 17.2396 18.7236 15.4992 18.0519 13.1358C17.9664 12.8366 17.9053 12.5312 17.8687 12.2198C17.8443 12.0121 17.832 11.8045 17.832 11.5908C17.832 8.47626 20.3664 5.94191 23.4809 5.94191Z" fill="white"/>
</svg>
