<svg width="40" height="40" viewBox="0 0 40 40" fill="none" xmlns="http://www.w3.org/2000/svg">
<path d="M20 0C8.97099 0 0 8.97099 0 20C0 31.029 8.97099 40 20 40C31.029 40 40 31.029 40 20C40 8.97099 31.029 0 20 0ZM20 39.084C15.7252 39.084 11.774 37.6733 8.59237 35.2916C3.93282 31.8046 0.916031 26.2473 0.916031 20C0.916031 9.47786 9.47786 0.916031 20 0.916031C26.2534 0.916031 31.8107 3.93893 35.2916 8.59237C37.6733 11.7802 39.084 15.7252 39.084 20C39.084 30.5221 30.5221 39.084 20 39.084Z" fill="#00BB6D"/>
<path d="M28.7941 6.24116C26.2536 4.61063 23.2368 3.66406 20.0002 3.66406C10.9926 3.66406 3.66431 10.9923 3.66431 19.9999C3.66431 23.2366 4.61087 26.2473 6.24141 28.7877C9.14828 33.3251 14.2292 36.3358 20.0002 36.3358C29.0078 36.3358 36.3361 29.0076 36.3361 19.9999C36.3361 14.2289 33.3254 9.14803 28.7941 6.24116ZM20.0002 35.4198C17.5574 35.4198 15.2551 34.8457 13.1971 33.832C10.0277 32.2686 7.46889 29.6427 5.98492 26.4244C5.08721 24.4702 4.58034 22.2961 4.58034 19.9999C4.58034 11.4992 11.4994 4.58009 20.0002 4.58009C22.2964 4.58009 24.4704 5.08696 26.4307 5.99078C29.649 7.47475 32.2689 10.0274 33.8384 13.203C34.846 15.2549 35.42 17.5633 35.42 19.9999C35.42 28.5007 28.5009 35.4198 20.0002 35.4198Z" fill="#00BB6D"/>
<path d="M13.252 8.9893C13.3558 8.9893 13.4596 8.96488 13.5573 8.90381C13.8505 8.73892 13.9482 8.3603 13.7772 8.07327C13.6062 7.78014 13.2337 7.68243 12.9406 7.85343C12.6535 8.01831 12.5558 8.39694 12.7207 8.68396C12.8367 8.87938 13.0383 8.9893 13.252 8.9893Z" fill="#00BB6D"/>
<path d="M8.06717 26.2107C7.77404 26.3756 7.67633 26.7542 7.84732 27.0413C7.95725 27.2367 8.16488 27.3466 8.37862 27.3466C8.48244 27.3466 8.58625 27.3222 8.68396 27.2672C8.97099 27.0962 9.0748 26.7237 8.90381 26.4306C8.73282 26.1374 8.3603 26.0397 8.06717 26.2107Z" fill="#00BB6D"/>
<path d="M8.04264 13.8383C8.14035 13.8932 8.24416 13.9176 8.34798 13.9176C8.55561 13.9176 8.76325 13.8077 8.87928 13.6123C9.04416 13.3192 8.94645 12.9467 8.65332 12.7757C8.36019 12.6108 7.98767 12.7085 7.81668 13.0016C7.6518 13.2947 7.74951 13.6673 8.04264 13.8383Z" fill="#00BB6D"/>
<path d="M13.606 31.1146C13.3129 30.9436 12.9403 31.0474 12.7693 31.3405C12.5984 31.6275 12.7022 32.0062 12.9953 32.171C13.0869 32.226 13.1968 32.2565 13.2945 32.2565C13.5083 32.2565 13.7159 32.1466 13.8258 31.9512C13.9968 31.6581 13.893 31.2856 13.606 31.1146Z" fill="#00BB6D"/>
<path d="M31.9449 26.1863C31.6518 26.0153 31.2793 26.113 31.1144 26.4062C30.9434 26.6993 31.0411 27.0718 31.3343 27.2428C31.432 27.2978 31.5358 27.3222 31.6396 27.3222C31.8533 27.3222 32.0549 27.2123 32.1709 27.0168C32.3358 26.7237 32.2381 26.3512 31.9449 26.1863Z" fill="#00BB6D"/>
<path d="M31.6091 13.8443C31.719 13.8443 31.8228 13.8199 31.9205 13.7588C32.2137 13.5939 32.3114 13.2153 32.1404 12.9283C31.9694 12.6351 31.5969 12.5374 31.3037 12.7084C31.0106 12.8733 30.9129 13.2519 31.0839 13.545C31.1999 13.7344 31.4015 13.8443 31.6091 13.8443Z" fill="#00BB6D"/>
<path d="M26.4184 31.1022C26.1313 31.2671 26.0275 31.6457 26.1985 31.9327C26.3145 32.1282 26.5161 32.2381 26.7298 32.2381C26.8336 32.2381 26.9374 32.2137 27.0352 32.1587C27.3283 31.9877 27.426 31.6152 27.255 31.3221C27.084 31.0289 26.7115 30.9312 26.4184 31.1022Z" fill="#00BB6D"/>
<path d="M26.3757 8.86719C26.4734 8.92215 26.5772 8.94658 26.681 8.94658C26.8886 8.94658 27.0963 8.83666 27.2062 8.64124C27.3772 8.34811 27.2734 7.97559 26.9864 7.8046C26.6932 7.63971 26.3146 7.73742 26.1497 8.03055C25.9787 8.32368 26.0825 8.6962 26.3757 8.86719Z" fill="#00BB6D"/>
<path d="M27.6029 11.139L26.6991 12.1161L20.9709 18.2841C20.6838 18.1192 20.3541 18.0215 19.9999 18.0215C18.9067 18.0215 18.0151 18.9131 18.0151 20.0062C18.0151 21.0993 18.9067 21.9848 19.9999 21.9848C20.3113 21.9848 20.5983 21.9054 20.8609 21.7772L25.0564 26.907C25.148 27.0169 25.2762 27.078 25.4106 27.078C25.5144 27.078 25.6182 27.0413 25.6976 26.9741C25.893 26.8154 25.9235 26.5283 25.7648 26.3329L21.5693 21.2031C21.8258 20.8673 21.9846 20.4581 21.9846 20.0062C21.9846 19.597 21.8625 19.2184 21.6487 18.907L27.9938 12.0734L28.2747 11.7741C28.4457 11.5909 28.4335 11.2978 28.2502 11.1268C28.067 10.9436 27.7739 10.9558 27.6029 11.139ZM21.0686 20.0001C21.0686 20.165 21.0258 20.3177 20.9648 20.452C20.8304 20.739 20.5678 20.9528 20.2564 21.0322C20.177 21.0505 20.0915 21.0688 19.9999 21.0688C19.4136 21.0688 18.9312 20.5864 18.9312 20.0001C18.9312 19.4138 19.4136 18.9314 19.9999 18.9314C20.1098 18.9314 20.2136 18.9558 20.3174 18.9864C20.6228 19.0841 20.8732 19.31 20.9892 19.6093C21.038 19.7314 21.0686 19.8596 21.0686 20.0001Z" fill="#00BB6D"/>
<path d="M8.24419 20C8.24419 19.7496 8.03655 19.542 7.78617 19.542H6.88235H5.95411C5.70373 19.542 5.49609 19.7496 5.49609 20C5.49609 20.2504 5.70373 20.458 5.95411 20.458H6.61365H7.78617C8.03655 20.458 8.24419 20.2504 8.24419 20Z" fill="#00BB6D"/>
<path d="M34.0457 19.542H32.2136C31.9571 19.542 31.7556 19.7496 31.7556 20C31.7556 20.2504 31.9632 20.458 32.2136 20.458H34.0457C34.2961 20.458 34.5037 20.2504 34.5037 20C34.5037 19.7496 34.2961 19.542 34.0457 19.542Z" fill="#00BB6D"/>
<path d="M20 31.7556C19.7496 31.7556 19.542 31.9571 19.542 32.2136V34.0457C19.542 34.2961 19.7496 34.5037 20 34.5037C20.2504 34.5037 20.458 34.2961 20.458 34.0457V32.2136C20.458 31.9571 20.2504 31.7556 20 31.7556Z" fill="#00BB6D"/>
<path d="M20 8.24431C20.2504 8.24431 20.458 8.03667 20.458 7.78629V6.61377V5.95423C20.458 5.70385 20.2504 5.49622 20 5.49622C19.7496 5.49622 19.542 5.70385 19.542 5.95423V6.88248V7.78629C19.542 8.03667 19.7496 8.24431 20 8.24431Z" fill="#00BB6D"/>
<path d="M23.3833 27.3528C22.3207 27.8413 21.1787 28.0917 20.0001 28.0917C16.7817 28.0917 14.0092 26.1986 12.7024 23.4749C12.1955 22.4184 11.9085 21.2459 11.9085 20.0001C11.9085 16.3299 14.4245 13.1054 17.9359 12.1833L18.0275 12.9406L19.994 11.4566L17.7222 10.4978L17.8199 11.2734C13.8504 12.2566 10.9924 15.8718 10.9924 20.0001C10.9924 21.7589 11.5054 23.3894 12.3787 24.7757C13.9726 27.31 16.7879 29.0077 20.0001 29.0077C21.313 29.0077 22.5833 28.7329 23.768 28.1833C24.0001 28.0795 24.0978 27.8047 23.994 27.5726C23.884 27.3467 23.6153 27.2489 23.3833 27.3528Z" fill="#00BB6D"/>
</svg>
