<svg width="17" height="17" viewBox="0 0 17 17" fill="none" xmlns="http://www.w3.org/2000/svg">
<path d="M14.7546 9.42095C14.5687 9.42095 14.3743 9.36179 14.1883 9.31954C13.8118 9.23657 13.4418 9.12641 13.0812 8.98993C12.6891 8.8473 12.2582 8.85471 11.8712 9.01073C11.4843 9.16675 11.1687 9.46037 10.9853 9.83507L10.7993 10.2154C9.97617 9.75747 9.21975 9.18874 8.55126 8.52511C7.88763 7.85662 7.3189 7.1002 6.86098 6.27704L7.21594 6.0404C7.59065 5.85693 7.88426 5.54137 8.04029 5.15443C8.19631 4.76749 8.20372 4.33652 8.06108 3.94445C7.92689 3.58309 7.81678 3.21323 7.73148 2.83732C7.68922 2.65139 7.65541 2.45701 7.63006 2.26262C7.52743 1.66732 7.21562 1.12823 6.75079 0.742421C6.28596 0.356612 5.69866 0.149445 5.09464 0.158227H2.55922C2.19499 0.154807 1.8343 0.229906 1.50171 0.378412C1.16911 0.526917 0.872418 0.745342 0.631824 1.01882C0.39123 1.29229 0.212385 1.6144 0.107464 1.9632C0.00254277 2.31201 -0.025991 2.67933 0.0238052 3.04015C0.474043 6.58076 2.09104 9.87047 4.61938 12.3896C7.14772 14.9088 10.4433 16.5138 13.9855 16.9511H14.3067C14.9299 16.9521 15.5316 16.7234 15.9969 16.3088C16.2643 16.0697 16.4779 15.7766 16.6236 15.4488C16.7693 15.121 16.8437 14.766 16.8421 14.4073V11.8719C16.8317 11.2848 16.618 10.7196 16.2372 10.2726C15.8565 9.82559 15.3325 9.52459 14.7546 9.42095ZM15.1772 14.4918C15.177 14.6118 15.1513 14.7304 15.1018 14.8397C15.0522 14.949 14.98 15.0464 14.8898 15.1256C14.7957 15.2076 14.6853 15.2688 14.5658 15.3052C14.4464 15.3416 14.3207 15.3524 14.1968 15.3369C11.0317 14.9311 8.09171 13.4831 5.84066 11.2213C3.58961 8.95959 2.15559 6.01279 1.76479 2.84577C1.75134 2.72197 1.76313 2.59673 1.79944 2.47762C1.83576 2.35851 1.89585 2.24799 1.97608 2.15276C2.05528 2.06261 2.15276 1.99035 2.26205 1.94081C2.37135 1.89126 2.48993 1.86556 2.60993 1.86541H5.14535C5.34188 1.86104 5.5338 1.92531 5.68805 2.04717C5.84231 2.16903 5.94925 2.34086 5.99049 2.53307C6.02429 2.76407 6.06655 2.99226 6.11726 3.21763C6.21489 3.66314 6.34482 4.10095 6.50602 4.5276L5.32283 5.07694C5.22166 5.12335 5.13066 5.1893 5.05505 5.27098C4.97944 5.35266 4.92071 5.44847 4.88223 5.55292C4.84375 5.65736 4.82629 5.76837 4.83083 5.87959C4.83537 5.9908 4.86184 6.10002 4.90871 6.20097C6.12504 8.80633 8.21933 10.9006 10.8247 12.1169C11.0304 12.2015 11.2612 12.2015 11.467 12.1169C11.5724 12.0792 11.6693 12.021 11.7519 11.9455C11.8346 11.8701 11.9015 11.779 11.9487 11.6775L12.4727 10.4943C12.9096 10.6505 13.3555 10.7804 13.808 10.883C14.0334 10.9338 14.2616 10.976 14.4926 11.0098C14.6848 11.0511 14.8566 11.158 14.9785 11.3123C15.1003 11.4665 15.1646 11.6584 15.1603 11.855L15.1772 14.4918Z" fill="white"/>
</svg>
