<svg width="33" height="32" viewBox="0 0 33 32" fill="none" xmlns="http://www.w3.org/2000/svg">
<path d="M32.0996 16C32.0996 24.5604 25.16 31.5 16.5996 31.5C8.0392 31.5 1.09961 24.5604 1.09961 16C1.09961 7.43959 8.0392 0.5 16.5996 0.5C25.16 0.5 32.0996 7.43959 32.0996 16Z" stroke="#2F4857"/>
<path d="M19.8002 8.66113H12.9308C10.8402 8.66113 9.09082 10.4105 9.09082 12.5865V19.2851C9.09082 21.4185 10.7975 23.2105 12.9308 23.2105H19.8002C21.8908 23.2105 23.6402 21.4611 23.6402 19.2851V12.5438C23.6402 10.4105 21.8908 8.66113 19.8002 8.66113ZM22.3175 19.1571C22.3175 20.6505 21.1228 21.8451 19.6722 21.8451H13.0588C11.6082 21.8451 10.4135 20.6078 10.4135 19.1571V12.6718C10.4135 11.1785 11.6082 9.9838 13.0588 9.9838H19.6722C21.1228 9.9838 22.3175 11.2211 22.3175 12.6718V19.1571Z" fill="#2F4857"/>
<path d="M16.3864 12.2021C14.3811 12.2021 12.7598 13.8661 12.7598 15.9141C12.7598 17.9621 14.3811 19.6261 16.3864 19.6261C18.3918 19.6261 20.0131 17.9621 20.0131 15.9141C20.0131 13.8661 18.3918 12.2021 16.3864 12.2021ZM16.3864 18.3035C15.1064 18.3035 14.0398 17.2368 14.0398 15.9141C14.0398 14.5915 15.1064 13.5248 16.3864 13.5248C17.6664 13.5248 18.7331 14.5915 18.7331 15.9141C18.7331 17.2368 17.6664 18.3035 16.3864 18.3035Z" fill="#2F4857"/>
<path d="M20.2267 12.8424C20.6744 12.8424 21.0373 12.4604 21.0373 11.9891C21.0373 11.5178 20.6744 11.1357 20.2267 11.1357C19.779 11.1357 19.416 11.5178 19.416 11.9891C19.416 12.4604 19.779 12.8424 20.2267 12.8424Z" fill="#2F4857"/>
</svg>
