<svg width="32" height="32" viewBox="0 0 32 32" fill="none" xmlns="http://www.w3.org/2000/svg">
<path d="M0.5 16C0.5 7.43959 7.43959 0.5 16 0.5C24.5604 0.5 31.5 7.43959 31.5 16C31.5 24.5604 24.5604 31.5 16 31.5C7.43959 31.5 0.5 24.5604 0.5 16Z" stroke="#2F4857"/>
<path d="M11.3066 13.252H7.68066V24.1464H11.3066V13.252Z" fill="#2F4857"/>
<path d="M11.3066 13.252H7.68066V24.1464H11.3066V13.252Z" stroke="#2F4857"/>
<path d="M11.546 9.8818C11.5224 8.8136 10.7586 8 9.51815 8C8.27774 8 7.4668 8.8136 7.4668 9.8818C7.4668 10.9279 8.25377 11.7649 9.47108 11.7649H9.49426C10.7586 11.7649 11.546 10.9279 11.546 9.8818Z" fill="#2F4857"/>
<path d="M11.546 9.8818C11.5224 8.8136 10.7586 8 9.51815 8C8.27774 8 7.4668 8.8136 7.4668 9.8818C7.4668 10.9279 8.25377 11.7649 9.47108 11.7649H9.49426C10.7586 11.7649 11.546 10.9279 11.546 9.8818Z" stroke="#2F4857"/>
<path d="M24.384 17.8998C24.384 14.5535 22.5952 12.9961 20.2091 12.9961C18.284 12.9961 17.4221 14.0535 16.9408 14.7953V13.2522H13.3145C13.3622 14.2745 13.3145 24.1467 13.3145 24.1467H16.9408V18.0623C16.9408 17.7367 16.9644 17.4119 17.0602 17.1788C17.3223 16.5283 17.919 15.8548 18.9207 15.8548C20.2333 15.8548 20.758 16.8538 20.758 18.3178V24.1464H24.3838L24.384 17.8998Z" fill="#2F4857"/>
<path d="M24.384 17.8998C24.384 14.5535 22.5952 12.9961 20.2091 12.9961C18.284 12.9961 17.4221 14.0535 16.9408 14.7953V13.2522H13.3145C13.3622 14.2745 13.3145 24.1467 13.3145 24.1467H16.9408V18.0623C16.9408 17.7367 16.9644 17.4119 17.0602 17.1788C17.3223 16.5283 17.919 15.8548 18.9207 15.8548C20.2333 15.8548 20.758 16.8538 20.758 18.3178V24.1464H24.3838L24.384 17.8998Z" stroke="#2F4857"/>
</svg>
