<svg width="32" height="32" viewBox="0 0 32 32" fill="none" xmlns="http://www.w3.org/2000/svg">
<path d="M31.5 16C31.5 24.5604 24.5604 31.5 16 31.5C7.43959 31.5 0.5 24.5604 0.5 16C0.5 7.43959 7.43959 0.5 16 0.5C24.5604 0.5 31.5 7.43959 31.5 16Z" stroke="#2F4857"/>
<path d="M23.6373 10.4965C22.9973 10.8805 22.3146 11.1365 21.5893 11.3072C20.9919 10.6672 20.1813 10.2832 19.2426 10.2832C17.4506 10.2832 16.0426 11.7765 16.0426 13.5685C16.0426 13.8245 16.0853 14.0805 16.1279 14.3365C13.4399 14.2085 11.0933 12.8859 9.51461 10.8805C9.25861 11.3499 9.08794 11.9472 9.08794 12.5445C9.08794 13.6965 9.6426 14.6779 10.4959 15.2752C9.98394 15.2752 9.47194 15.1045 9.04527 14.8485V14.8912C9.04527 16.4699 10.1546 17.8352 11.6053 18.1339C11.3493 18.2192 11.0506 18.2619 10.7519 18.2619C10.5386 18.2619 10.3253 18.2619 10.1546 18.2192C10.5813 19.5419 11.7333 20.4805 13.1413 20.5232C12.0319 21.4192 10.6666 21.9312 9.17327 21.9312C8.91727 21.9312 8.66127 21.9312 8.40527 21.8885C9.81327 22.8272 11.5199 23.3819 13.3119 23.3819C19.1999 23.3819 22.4426 18.3472 22.4426 14.0379C22.4426 13.9099 22.4426 13.7392 22.4426 13.6112C23.0826 13.1419 23.5946 12.5872 24.0639 11.9045C23.5093 12.1605 22.8693 12.3312 22.2293 12.4165C22.8693 11.9045 23.3813 11.2645 23.6373 10.4965Z" fill="#2F4857"/>
</svg>
